<?xml version="1.0" encoding="utf-8"?>
<!DOCTYPE svg PUBLIC "-//W3C//DTD SVG 1.1//EN" "http://www.w3.org/Graphics/SVG/1.1/DTD/svg11.dtd">
<svg version="1.1" xmlns="http://www.w3.org/2000/svg" xmlns:xlink="http://www.w3.org/1999/xlink" x="0px" y="0px"
	 viewBox="0 0 512 512" enable-background="new 0 0 512 512" xml:space="preserve"  width="512" height="512">
	<g opacity="0.5">
		<path d="M153.363,319.2v-2.016c0-0.917-0.448-1.376-1.344-1.376h-0.48c-0.875,0-1.312,0.459-1.312,1.376v3.808
			c0,0.427,0.085,0.715,0.256,0.864c0.17,0.149,0.448,0.341,0.832,0.576l2.912,1.567c0.64,0.363,1.093,0.646,1.36,0.849
			c0.267,0.202,0.475,0.447,0.624,0.735s0.224,0.838,0.224,1.648v4.896c0,2.582-1.237,3.872-3.712,3.872h-1.888
			c-2.453,0-3.68-1.408-3.68-4.224v-1.152h3.072v1.248c0,0.896,0.458,1.344,1.376,1.344h0.544c0.811,0,1.216-0.447,1.216-1.344
			v-3.904c0-0.426-0.085-0.714-0.256-0.863s-0.448-0.341-0.832-0.576l-2.912-1.632c-0.64-0.341-1.104-0.629-1.392-0.864
			c-0.288-0.234-0.496-0.538-0.624-0.912c-0.128-0.373-0.192-0.858-0.192-1.456v-4.704c0-2.624,1.227-3.936,3.68-3.936h1.92
			c2.453,0,3.68,1.312,3.68,3.936v2.24H153.363z"/>
		<path d="M158.994,313.024h5.6c2.475,0,3.712,1.312,3.712,3.936v6.816c0,2.603-1.227,3.904-3.68,3.904h-2.56V336h-3.072V313.024z
			 M162.066,324.896h1.952c0.811,0,1.216-0.448,1.216-1.345v-6.399c0-0.896-0.459-1.344-1.376-1.344h-1.792V324.896z"/>
		<path d="M173.65,336h-3.072v-19.04c0-2.624,1.227-3.936,3.68-3.936h2.304c2.453,0,3.68,1.312,3.68,3.936V336h-3.072v-8.416h-3.52
			V336z M177.17,324.8v-7.647c0-0.896-0.448-1.344-1.344-1.344h-0.832c-0.896,0-1.344,0.447-1.344,1.344v7.647H177.17z"/>
		<path d="M192.146,330.624v1.473c0,2.603-1.227,3.903-3.68,3.903h-1.984c-2.454,0-3.68-1.301-3.68-3.903v-15.168
			c0-2.603,1.227-3.904,3.68-3.904h1.984c2.453,0,3.68,1.302,3.68,3.904v2.592h-3.072v-2.368c0-0.896-0.459-1.344-1.376-1.344
			h-0.608c-0.811,0-1.216,0.447-1.216,1.344v14.72c0,0.896,0.405,1.344,1.216,1.344h0.768c0.811,0,1.216-0.447,1.216-1.344v-1.248
			H192.146z"/>
		<path d="M194.545,336v-22.976h7.616v2.784h-4.544v6.976h4.032v2.784h-4.032v7.647h4.544V336H194.545z"/>
		<path d="M204.369,313.024h6.016c2.347,0,3.52,1.312,3.52,3.936v5.664c0,2.006-0.608,3.275-1.824,3.809l2.144,9.567h-2.912
			l-2.016-9.279h-1.856V336h-3.072V313.024z M207.441,324.097h2.016c0.917,0,1.376-0.555,1.376-1.664v-4.96
			c0-1.109-0.459-1.664-1.376-1.664h-2.016V324.097z"/>
		<path d="M220.017,336c-2.475,0-3.712-1.301-3.712-3.903V316.96c0-2.624,1.227-3.936,3.68-3.936h2.944
			c2.453,0,3.68,1.312,3.68,3.936v15.137c0,2.603-1.237,3.903-3.712,3.903H220.017z M220.753,333.216h1.568
			c0.811,0,1.216-0.447,1.216-1.344v-14.72c0-0.896-0.459-1.344-1.376-1.344h-1.44c-0.896,0-1.344,0.447-1.344,1.344v14.72
			C219.377,332.769,219.835,333.216,220.753,333.216z"/>
		<path d="M238.513,330.624v1.473c0,2.603-1.227,3.903-3.68,3.903h-1.984c-2.454,0-3.68-1.301-3.68-3.903v-15.168
			c0-2.603,1.227-3.904,3.68-3.904h1.984c2.453,0,3.68,1.302,3.68,3.904v2.592h-3.072v-2.368c0-0.896-0.459-1.344-1.376-1.344
			h-0.608c-0.811,0-1.216,0.447-1.216,1.344v14.72c0,0.896,0.405,1.344,1.216,1.344h0.768c0.811,0,1.216-0.447,1.216-1.344v-1.248
			H238.513z"/>
		<path d="M243.985,336h-3.072v-22.976h3.072V336z M251.057,336h-3.072l-3.84-11.231v-0.192l3.2-11.552h2.816l-3.232,11.424
			L251.057,336z"/>
		<path d="M258.705,319.2v-2.016c0-0.917-0.449-1.376-1.345-1.376h-0.48c-0.875,0-1.312,0.459-1.312,1.376v3.808
			c0,0.427,0.085,0.715,0.256,0.864c0.17,0.149,0.448,0.341,0.832,0.576l2.912,1.567c0.641,0.363,1.094,0.646,1.359,0.849
			c0.268,0.202,0.475,0.447,0.625,0.735c0.148,0.288,0.225,0.838,0.225,1.648v4.896c0,2.582-1.238,3.872-3.713,3.872h-1.888
			c-2.453,0-3.68-1.408-3.68-4.224v-1.152h3.072v1.248c0,0.896,0.458,1.344,1.376,1.344h0.544c0.811,0,1.217-0.447,1.217-1.344
			v-3.904c0-0.426-0.086-0.714-0.256-0.863c-0.172-0.149-0.449-0.341-0.832-0.576l-2.913-1.632c-0.64-0.341-1.104-0.629-1.392-0.864
			c-0.288-0.234-0.496-0.538-0.624-0.912c-0.128-0.373-0.192-0.858-0.192-1.456v-4.704c0-2.624,1.227-3.936,3.68-3.936h1.919
			c2.453,0,3.682,1.312,3.682,3.936v2.24H258.705z"/>
		<path d="M269.456,313.024h6.016c2.347,0,3.52,1.312,3.52,3.936v5.664c0,2.006-0.607,3.275-1.823,3.809l2.144,9.567h-2.912
			l-2.016-9.279h-1.856V336h-3.071V313.024z M272.527,324.097h2.017c0.917,0,1.376-0.555,1.376-1.664v-4.96
			c0-1.109-0.459-1.664-1.376-1.664h-2.017V324.097z"/>
		<path d="M281.552,336v-22.976h7.615v2.784h-4.544v6.976h4.032v2.784h-4.032v7.647h4.544V336H281.552z"/>
		<path d="M297.615,326.528l2.849-13.504h3.392V336h-3.072l0.32-15.04l-2.304,10.88h-2.368l-2.304-10.88l0.319,15.04h-3.071v-22.976
			h3.392L297.615,326.528z"/>
		<path d="M309.646,336h-3.071v-19.04c0-2.624,1.227-3.936,3.68-3.936h2.304c2.453,0,3.681,1.312,3.681,3.936V336h-3.072v-8.416
			h-3.521V336z M313.167,324.8v-7.647c0-0.896-0.448-1.344-1.344-1.344h-0.832c-0.896,0-1.345,0.447-1.345,1.344v7.647H313.167z"/>
		<path d="M318.959,336v-22.976h3.071V336H318.959z"/>
		<path d="M331.278,324.128v-11.104h3.072V336h-3.072v-4.576l-3.296-10.464V336h-3.071v-22.976h3.071L331.278,324.128z"/>
		<path d="M337.231,336v-22.976h3.071V336H337.231z"/>
		<path d="M349.55,324.128v-11.104h3.072V336h-3.072v-4.576l-3.296-10.464V336h-3.071v-22.976h3.071L349.55,324.128z"/>
		<path d="M360.238,327.584V324.8h4.672V336h-6.016c-2.368,0-3.552-1.29-3.552-3.872V316.96c0-2.624,1.184-3.936,3.552-3.936h2.112
			c2.603,0,3.903,1.333,3.903,4v2.496h-3.071v-2.048c0-1.109-0.438-1.664-1.312-1.664h-0.768c-0.896,0-1.345,0.555-1.345,1.664
			v14.079c0,1.11,0.448,1.664,1.345,1.664h2.08v-5.632H360.238z"/>
	</g>
	<g opacity="0.33">
		<path d="M219.031,359.188h5.617V360h-6.586v-11.375h0.969V359.188z"/>
		<path d="M231.609,360c-0.094-0.266-0.154-0.659-0.18-1.18c-0.328,0.427-0.746,0.757-1.254,0.988s-1.046,0.348-1.613,0.348
			c-0.812,0-1.47-0.227-1.973-0.68c-0.503-0.453-0.754-1.026-0.754-1.719c0-0.823,0.342-1.474,1.027-1.953
			c0.685-0.479,1.639-0.719,2.863-0.719h1.695v-0.961c0-0.604-0.187-1.079-0.559-1.426c-0.373-0.347-0.916-0.52-1.629-0.52
			c-0.651,0-1.19,0.167-1.617,0.5c-0.427,0.333-0.641,0.734-0.641,1.203l-0.938-0.008c0-0.672,0.312-1.254,0.938-1.746
			s1.393-0.738,2.305-0.738c0.942,0,1.686,0.235,2.23,0.707c0.544,0.472,0.824,1.129,0.84,1.973v4c0,0.817,0.086,1.43,0.258,1.836
			V360H231.609z M228.672,359.328c0.625,0,1.184-0.151,1.676-0.453s0.85-0.706,1.074-1.211v-1.859h-1.672
			c-0.933,0.011-1.662,0.181-2.188,0.512c-0.526,0.331-0.789,0.785-0.789,1.363c0,0.474,0.176,0.867,0.527,1.18
			S228.109,359.328,228.672,359.328z"/>
		<path d="M238.75,352.344c-0.198-0.036-0.409-0.055-0.633-0.055c-0.583,0-1.077,0.163-1.48,0.488
			c-0.404,0.325-0.691,0.798-0.863,1.418V360h-0.93v-8.453h0.914l0.016,1.344c0.495-1,1.289-1.5,2.383-1.5
			c0.26,0,0.466,0.034,0.617,0.102L238.75,352.344z"/>
		<path d="M239.703,355.695c0-1.323,0.293-2.371,0.879-3.145s1.381-1.16,2.387-1.16c1.151,0,2.026,0.458,2.625,1.375l0.047-1.219
			h0.875v8.281c0,1.089-0.305,1.95-0.914,2.586s-1.435,0.953-2.477,0.953c-0.589,0-1.15-0.132-1.684-0.395
			c-0.534-0.263-0.955-0.613-1.262-1.051l0.523-0.562c0.661,0.812,1.448,1.219,2.359,1.219c0.781,0,1.391-0.23,1.828-0.691
			s0.664-1.101,0.68-1.918v-1.062c-0.599,0.833-1.472,1.25-2.617,1.25c-0.979,0-1.766-0.391-2.359-1.172s-0.891-1.836-0.891-3.164
			V355.695z M240.648,355.859c0,1.078,0.216,1.929,0.648,2.551c0.432,0.622,1.042,0.934,1.828,0.934
			c1.151,0,1.966-0.516,2.445-1.547v-3.93c-0.219-0.542-0.534-0.954-0.945-1.238c-0.412-0.284-0.906-0.426-1.484-0.426
			c-0.787,0-1.398,0.309-1.836,0.926S240.648,354.656,240.648,355.859z"/>
		<path d="M252.227,360.156c-0.719,0-1.369-0.177-1.949-0.531c-0.581-0.354-1.033-0.848-1.355-1.48
			c-0.323-0.633-0.484-1.343-0.484-2.129v-0.336c0-0.812,0.157-1.544,0.473-2.195c0.315-0.651,0.754-1.163,1.316-1.535
			s1.172-0.559,1.828-0.559c1.026,0,1.84,0.351,2.441,1.051s0.902,1.657,0.902,2.871v0.523h-6.031v0.18
			c0,0.958,0.274,1.757,0.824,2.395c0.549,0.638,1.241,0.957,2.074,0.957c0.5,0,0.941-0.091,1.324-0.273s0.73-0.474,1.043-0.875
			l0.586,0.445C254.531,359.659,253.534,360.156,252.227,360.156z M252.055,352.188c-0.703,0-1.296,0.258-1.777,0.773
			c-0.482,0.516-0.775,1.208-0.879,2.078h5.07v-0.102c-0.026-0.812-0.258-1.474-0.695-1.984S252.763,352.188,252.055,352.188z"/>
		<path d="M201.156,372.625l4.195,10.039l4.211-10.039h1.281V384h-0.961v-4.953l0.078-5.078L205.727,384h-0.742l-4.219-9.992
			l0.078,5.008V384h-0.961v-11.375H201.156z"/>
		<path d="M216.781,384.156c-0.719,0-1.369-0.177-1.949-0.531c-0.581-0.354-1.033-0.848-1.355-1.48
			c-0.323-0.633-0.484-1.343-0.484-2.129v-0.336c0-0.812,0.157-1.544,0.473-2.195c0.315-0.651,0.754-1.163,1.316-1.535
			s1.172-0.559,1.828-0.559c1.026,0,1.84,0.351,2.441,1.051s0.902,1.657,0.902,2.871v0.523h-6.031v0.18
			c0,0.958,0.274,1.757,0.824,2.395c0.549,0.638,1.241,0.957,2.074,0.957c0.5,0,0.941-0.091,1.324-0.273s0.73-0.474,1.043-0.875
			l0.586,0.445C219.086,383.659,218.088,384.156,216.781,384.156z M216.609,376.188c-0.703,0-1.296,0.258-1.777,0.773
			c-0.482,0.516-0.775,1.208-0.879,2.078h5.07v-0.102c-0.026-0.812-0.258-1.474-0.695-1.984S217.317,376.188,216.609,376.188z"/>
		<path d="M221.398,379.695c0-1.312,0.293-2.358,0.879-3.137s1.381-1.168,2.387-1.168c1.141,0,2.01,0.45,2.609,1.352V372h0.93v12
			h-0.875l-0.039-1.125c-0.599,0.854-1.479,1.281-2.641,1.281c-0.974,0-1.759-0.392-2.355-1.176
			c-0.597-0.784-0.895-1.843-0.895-3.176V379.695z M222.344,379.859c0,1.078,0.216,1.929,0.648,2.551
			c0.432,0.622,1.042,0.934,1.828,0.934c1.151,0,1.969-0.508,2.453-1.523v-3.969c-0.484-1.099-1.297-1.648-2.438-1.648
			c-0.787,0-1.398,0.309-1.836,0.926S222.344,378.656,222.344,379.859z"/>
		<path d="M230.609,373.105c0-0.176,0.057-0.325,0.172-0.446c0.114-0.122,0.271-0.183,0.469-0.183c0.198,0,0.355,0.061,0.473,0.183
			c0.117,0.121,0.176,0.271,0.176,0.446s-0.059,0.323-0.176,0.442s-0.275,0.179-0.473,0.179c-0.198,0-0.354-0.06-0.469-0.179
			C230.667,373.429,230.609,373.281,230.609,373.105z M231.711,384h-0.938v-8.453h0.938V384z"/>
		<path d="M239.688,382.93c-0.562,0.817-1.461,1.227-2.695,1.227c-0.901,0-1.586-0.262-2.055-0.785s-0.708-1.298-0.719-2.324v-5.5
			h0.93v5.383c0,1.609,0.651,2.414,1.953,2.414c1.354,0,2.211-0.56,2.57-1.68v-6.117h0.938V384h-0.906L239.688,382.93z"/>
		<path d="M243.891,375.547l0.031,1.375c0.312-0.511,0.703-0.894,1.172-1.148s0.989-0.383,1.562-0.383
			c1.333,0,2.18,0.547,2.539,1.641c0.302-0.526,0.706-0.931,1.211-1.215c0.505-0.284,1.062-0.426,1.672-0.426
			c1.812,0,2.737,0.989,2.773,2.969V384h-0.938v-5.57c-0.005-0.755-0.168-1.315-0.488-1.68s-0.843-0.547-1.566-0.547
			c-0.672,0.011-1.24,0.228-1.703,0.652c-0.464,0.425-0.722,0.941-0.773,1.551V384h-0.938v-5.641
			c-0.005-0.724-0.176-1.265-0.512-1.621s-0.853-0.535-1.551-0.535c-0.589,0-1.094,0.168-1.516,0.504s-0.734,0.835-0.938,1.496V384
			h-0.938v-8.453H243.891z"/>
		<path d="M224.477,405.203c0-0.63-0.222-1.129-0.664-1.496c-0.443-0.367-1.253-0.716-2.43-1.047
			c-1.177-0.331-2.037-0.691-2.578-1.082c-0.771-0.552-1.156-1.276-1.156-2.172c0-0.87,0.358-1.577,1.074-2.121
			c0.716-0.544,1.631-0.816,2.746-0.816c0.755,0,1.431,0.146,2.027,0.438c0.596,0.292,1.059,0.698,1.387,1.219
			s0.492,1.102,0.492,1.742h-0.969c0-0.778-0.266-1.404-0.797-1.877s-1.245-0.709-2.141-0.709c-0.87,0-1.562,0.194-2.078,0.583
			s-0.773,0.896-0.773,1.521c0,0.579,0.231,1.052,0.695,1.417c0.463,0.365,1.206,0.688,2.227,0.966
			c1.021,0.279,1.794,0.568,2.32,0.868c0.526,0.3,0.922,0.657,1.188,1.074s0.398,0.909,0.398,1.477c0,0.896-0.358,1.614-1.074,2.156
			c-0.716,0.542-1.66,0.812-2.832,0.812c-0.802,0-1.538-0.144-2.207-0.43c-0.669-0.286-1.177-0.688-1.523-1.203
			c-0.347-0.516-0.52-1.106-0.52-1.773h0.961c0,0.802,0.299,1.435,0.898,1.898c0.599,0.464,1.396,0.695,2.391,0.695
			c0.885,0,1.596-0.195,2.133-0.586C224.208,406.367,224.477,405.849,224.477,405.203z"/>
		<path d="M228.148,399.547l0.031,1.375c0.312-0.511,0.703-0.894,1.172-1.148s0.989-0.383,1.562-0.383
			c1.333,0,2.18,0.547,2.539,1.641c0.302-0.526,0.706-0.931,1.211-1.215c0.505-0.284,1.062-0.426,1.672-0.426
			c1.812,0,2.737,0.989,2.773,2.969V408h-0.938v-5.57c-0.005-0.755-0.168-1.315-0.488-1.68s-0.843-0.547-1.566-0.547
			c-0.672,0.011-1.24,0.228-1.703,0.652c-0.464,0.425-0.722,0.941-0.773,1.551V408h-0.938v-5.641
			c-0.005-0.724-0.176-1.265-0.512-1.621s-0.853-0.535-1.551-0.535c-0.589,0-1.094,0.168-1.516,0.504s-0.734,0.835-0.938,1.496V408
			h-0.938v-8.453H228.148z"/>
		<path d="M246.812,408c-0.094-0.266-0.154-0.659-0.18-1.18c-0.328,0.427-0.746,0.757-1.254,0.988s-1.046,0.348-1.613,0.348
			c-0.812,0-1.47-0.227-1.973-0.68c-0.503-0.453-0.754-1.026-0.754-1.719c0-0.823,0.342-1.474,1.027-1.953
			c0.685-0.479,1.639-0.719,2.863-0.719h1.695v-0.961c0-0.604-0.187-1.079-0.559-1.426c-0.373-0.347-0.916-0.52-1.629-0.52
			c-0.651,0-1.19,0.167-1.617,0.5c-0.427,0.333-0.641,0.734-0.641,1.203l-0.938-0.008c0-0.672,0.312-1.254,0.938-1.746
			s1.393-0.738,2.305-0.738c0.942,0,1.686,0.235,2.23,0.707c0.544,0.472,0.824,1.129,0.84,1.973v4c0,0.817,0.086,1.43,0.258,1.836
			V408H246.812z M243.875,407.328c0.625,0,1.184-0.151,1.676-0.453s0.85-0.706,1.074-1.211v-1.859h-1.672
			c-0.933,0.011-1.662,0.181-2.188,0.512c-0.526,0.331-0.789,0.785-0.789,1.363c0,0.474,0.176,0.867,0.527,1.18
			S243.312,407.328,243.875,407.328z"/>
		<path d="M251.094,408h-0.938v-12h0.938V408z"/>
		<path d="M254.68,408h-0.938v-12h0.938V408z"/>
	</g>
</svg>