<?xml version="1.0" encoding="utf-8"?>
<!DOCTYPE svg PUBLIC "-//W3C//DTD SVG 1.1//EN" "http://www.w3.org/Graphics/SVG/1.1/DTD/svg11.dtd">
<svg version="1.1" xmlns="http://www.w3.org/2000/svg" xmlns:xlink="http://www.w3.org/1999/xlink" x="0px" y="0px"
	 viewBox="0 0 512 512" enable-background="new 0 0 512 512" xml:space="preserve"  width="512" height="512">
	<g display="inline">
		<path d="M126.526,182.497l0.879-5.551c0.4-2.525-0.633-3.789-3.1-3.789h-1.322c-2.409,0-3.813,1.264-4.213,3.789l-1.661,10.485
			c-0.186,1.176-0.078,1.969,0.328,2.379c0.404,0.412,1.084,0.94,2.039,1.586l7.334,4.317c1.604,1,2.728,1.777,3.375,2.335
			c0.645,0.559,1.111,1.234,1.397,2.027c0.285,0.793,0.252,2.306-0.102,4.538l-2.135,13.48c-1.126,7.108-5.096,10.661-11.909,10.661
			h-5.198c-6.756,0-9.518-3.877-8.29-11.63l0.502-3.172h8.458l-0.544,3.436c-0.391,2.467,0.676,3.701,3.202,3.701h1.498
			c2.232,0,3.544-1.233,3.934-3.701l1.702-10.749c0.186-1.174,0.076-1.967-0.328-2.379c-0.406-0.41-1.085-0.939-2.04-1.586
			l-7.306-4.494c-1.614-0.939-2.766-1.732-3.456-2.379c-0.691-0.646-1.131-1.483-1.321-2.511c-0.19-1.027-0.154-2.364,0.106-4.009
			l2.051-12.952c1.144-7.225,5.093-10.837,11.849-10.837h5.287c6.754,0,9.56,3.613,8.416,10.837l-0.977,6.168H126.526z"/>
		<path d="M144.038,165.491h15.419c6.813,0,9.648,3.613,8.504,10.837l-2.972,18.767c-1.135,7.167-5.081,10.749-11.835,10.749h-7.049
			l-3.628,22.908h-8.458L144.038,165.491z M147.319,198.18h5.375c2.232,0,3.544-1.233,3.934-3.7l2.791-17.622
			c0.391-2.467-0.678-3.7-3.202-3.7h-4.934L147.319,198.18z"/>
		<path d="M174.115,228.754h-8.458l8.303-52.425c1.144-7.225,5.094-10.837,11.849-10.837h6.344c6.754,0,9.561,3.613,8.416,10.837
			l-8.303,52.425h-8.459l3.67-23.173h-9.692L174.115,228.754z M188.692,197.916l3.335-21.058c0.391-2.467-0.647-3.7-3.114-3.7
			h-2.291c-2.467,0-3.896,1.234-4.287,3.7l-3.335,21.058H188.692z"/>
		<path d="M226.681,213.952l-0.642,4.053c-1.135,7.167-5.081,10.749-11.835,10.749h-5.463c-6.755,0-9.565-3.582-8.43-10.749
			l6.615-41.764c1.135-7.166,5.08-10.749,11.835-10.749h5.463c6.754,0,9.565,3.584,8.43,10.749l-1.13,7.137h-8.459l1.033-6.52
			c0.391-2.467-0.678-3.7-3.202-3.7h-1.674c-2.233,0-3.544,1.234-3.934,3.7l-6.419,40.53c-0.391,2.467,0.529,3.701,2.762,3.701
			h2.115c2.231,0,3.543-1.233,3.934-3.701l0.544-3.436H226.681z"/>
		<path d="M230.495,228.754l10.02-63.262h20.97l-1.214,7.665H247.76l-3.042,19.208h11.102l-1.214,7.666h-11.102l-3.335,21.058
			h12.511l-1.214,7.665H230.495z"/>
	</g>
	<g display="inline">
		<path d="M264.875,192.336h16.564c6.461,0,9.12,3.612,7.975,10.837l-2.47,15.595c-0.875,5.522-3.102,9.017-6.683,10.485
			l1.731,26.345h-8.018l-1.504-25.552h-5.11l-4.047,25.552h-8.458L264.875,192.336z M268.505,222.822h5.551
			c2.525,0,4.03-1.527,4.514-4.582l2.163-13.657c0.483-3.053-0.538-4.581-3.063-4.581h-5.551L268.505,222.822z"/>
		<path d="M297.499,255.598c-6.815,0-9.653-3.582-8.518-10.749l6.601-41.676c1.144-7.225,5.094-10.837,11.849-10.837h8.106
			c6.754,0,9.56,3.612,8.416,10.837l-6.601,41.676c-1.135,7.167-5.11,10.749-11.923,10.749H297.499z M300.74,247.932h4.317
			c2.232,0,3.544-1.233,3.934-3.7l6.419-40.53c0.391-2.467-0.678-3.7-3.202-3.7h-3.965c-2.467,0-3.896,1.233-4.287,3.7l-6.419,40.53
			C297.146,246.699,298.213,247.932,300.74,247.932z"/>
		<path d="M350.083,240.796l-0.642,4.053c-1.135,7.167-5.081,10.749-11.835,10.749h-5.463c-6.755,0-9.565-3.582-8.43-10.749
			l6.615-41.764c1.135-7.166,5.08-10.749,11.835-10.749h5.463c6.754,0,9.565,3.584,8.43,10.749l-1.13,7.137h-8.459l1.033-6.52
			c0.391-2.467-0.678-3.7-3.202-3.7h-1.674c-2.233,0-3.544,1.233-3.934,3.7l-6.419,40.53c-0.391,2.467,0.529,3.7,2.762,3.7h2.115
			c2.232,0,3.543-1.233,3.934-3.7l0.544-3.436H350.083z"/>
		<path d="M362.356,255.598h-8.458l10.02-63.262h8.458L362.356,255.598z M381.828,255.598h-8.458l-5.675-30.926l0.084-0.529
			l13.849-31.807h7.754l-13.881,31.455L381.828,255.598z"/>
		<path d="M408.449,209.341l0.879-5.551c0.4-2.525-0.634-3.788-3.101-3.788h-1.322c-2.409,0-3.812,1.264-4.212,3.788l-1.661,10.485
			c-0.186,1.176-0.078,1.969,0.328,2.379c0.404,0.411,1.084,0.94,2.039,1.586l7.334,4.317c1.604,0.999,2.728,1.777,3.375,2.335
			c0.645,0.559,1.111,1.234,1.397,2.027c0.285,0.793,0.252,2.306-0.102,4.538l-2.135,13.48c-1.126,7.108-5.096,10.661-11.909,10.661
			h-5.198c-6.756,0-9.518-3.877-8.29-11.63l0.502-3.172h8.458l-0.544,3.436c-0.391,2.467,0.676,3.7,3.202,3.7h1.498
			c2.231,0,3.544-1.233,3.934-3.7l1.703-10.749c0.186-1.174,0.076-1.967-0.328-2.379c-0.406-0.41-1.085-0.939-2.04-1.586
			l-7.306-4.494c-1.614-0.939-2.765-1.732-3.456-2.379c-0.691-0.646-1.131-1.483-1.32-2.511c-0.19-1.027-0.154-2.364,0.106-4.009
			l2.051-12.952c1.144-7.225,5.094-10.837,11.849-10.837h5.287c6.754,0,9.56,3.612,8.416,10.837l-0.977,6.168H408.449z"/>
	</g>
	<polygon display="inline" opacity="0.33" points="405.553,280.426 93.867,280.426 95.175,272.166 406.861,272.166 	"/>
	<g display="inline">
		<path d="M151.806,352h-1.211v-6.816h-8.125V352h-1.201v-14.219h1.201v6.387h8.125v-6.387h1.211V352z"/>
		<path d="M161.815,352c-0.117-0.332-0.192-0.823-0.225-1.475c-0.41,0.534-0.933,0.945-1.567,1.235s-1.307,0.435-2.017,0.435
			c-1.016,0-1.837-0.283-2.466-0.85s-0.942-1.282-0.942-2.148c0-1.028,0.428-1.843,1.284-2.441s2.049-0.898,3.579-0.898h2.119
			v-1.201c0-0.755-0.233-1.35-0.698-1.782s-1.144-0.649-2.036-0.649c-0.814,0-1.488,0.208-2.021,0.625s-0.801,0.918-0.801,1.504
			l-1.172-0.01c0-0.84,0.391-1.567,1.172-2.183s1.742-0.923,2.881-0.923c1.178,0,2.108,0.295,2.788,0.884s1.03,1.411,1.05,2.466v5
			c0,1.022,0.107,1.787,0.322,2.295V352H161.815z M158.144,351.16c0.781,0,1.479-0.188,2.095-0.566s1.063-0.882,1.343-1.514v-2.324
			h-2.09c-1.166,0.013-2.077,0.227-2.734,0.64s-0.986,0.981-0.986,1.704c0,0.593,0.22,1.084,0.659,1.475
			S157.44,351.16,158.144,351.16z"/>
		<path d="M174.354,346.824c0,1.647-0.365,2.954-1.094,3.921s-1.706,1.45-2.93,1.45c-1.445,0-2.552-0.508-3.32-1.523v5.391h-1.162
			v-14.629h1.084l0.059,1.494c0.762-1.126,1.865-1.689,3.311-1.689c1.263,0,2.254,0.479,2.974,1.436s1.079,2.285,1.079,3.984
			V346.824z M173.183,346.619c0-1.348-0.277-2.412-0.83-3.193s-1.325-1.172-2.314-1.172c-0.716,0-1.332,0.173-1.846,0.518
			s-0.908,0.847-1.182,1.504v5.068c0.28,0.605,0.68,1.067,1.201,1.387s1.136,0.479,1.846,0.479c0.983,0,1.75-0.393,2.3-1.177
			S173.183,348.11,173.183,346.619z"/>
		<path d="M185.438,346.824c0,1.647-0.365,2.954-1.094,3.921s-1.706,1.45-2.93,1.45c-1.445,0-2.552-0.508-3.32-1.523v5.391h-1.162
			v-14.629h1.084l0.059,1.494c0.762-1.126,1.865-1.689,3.311-1.689c1.263,0,2.254,0.479,2.974,1.436s1.079,2.285,1.079,3.984
			V346.824z M184.267,346.619c0-1.348-0.277-2.412-0.83-3.193s-1.325-1.172-2.314-1.172c-0.716,0-1.332,0.173-1.846,0.518
			s-0.908,0.847-1.182,1.504v5.068c0.28,0.605,0.68,1.067,1.201,1.387s1.136,0.479,1.846,0.479c0.983,0,1.75-0.393,2.3-1.177
			S184.267,348.11,184.267,346.619z"/>
		<path d="M191.269,350.32l3.086-8.887h1.26l-4.512,12.363l-0.234,0.547c-0.58,1.282-1.475,1.924-2.686,1.924
			c-0.28,0-0.58-0.046-0.898-0.137l-0.01-0.967l0.605,0.059c0.573,0,1.037-0.142,1.392-0.425s0.656-0.77,0.903-1.46l0.518-1.426
			l-3.984-10.479h1.279L191.269,350.32z"/>
		<path d="M213.095,352h-1.211v-6.816h-8.125V352h-1.201v-14.219h1.201v6.387h8.125v-6.387h1.211V352z"/>
		<path d="M215.79,346.561c0-1.016,0.197-1.931,0.591-2.744s0.951-1.447,1.67-1.899s1.535-0.679,2.446-0.679
			c1.406,0,2.545,0.493,3.418,1.479s1.309,2.293,1.309,3.921v0.244c0,1.022-0.197,1.941-0.591,2.759s-0.949,1.447-1.665,1.89
			s-1.533,0.664-2.451,0.664c-1.4,0-2.538-0.493-3.413-1.479s-1.313-2.293-1.313-3.921V346.561z M216.962,346.883
			c0,1.263,0.327,2.3,0.981,3.11s1.512,1.216,2.573,1.216c1.055,0,1.909-0.405,2.563-1.216s0.981-1.88,0.981-3.208v-0.225
			c0-0.808-0.15-1.546-0.449-2.217s-0.719-1.189-1.26-1.558s-1.159-0.552-1.855-0.552c-1.042,0-1.891,0.408-2.549,1.226
			s-0.986,1.887-0.986,3.208V346.883z"/>
		<path d="M228.944,352h-1.172v-15h1.172V352z"/>
		<path d="M232.05,338.382c0-0.22,0.072-0.406,0.215-0.558c0.143-0.152,0.338-0.229,0.586-0.229s0.444,0.076,0.591,0.229
			c0.146,0.151,0.22,0.338,0.22,0.558s-0.073,0.404-0.22,0.553c-0.146,0.149-0.343,0.224-0.591,0.224s-0.443-0.074-0.586-0.224
			C232.122,338.786,232.05,338.602,232.05,338.382z M233.427,352h-1.172v-10.566h1.172V352z"/>
		<path d="M236.132,346.619c0-1.641,0.366-2.947,1.099-3.921s1.727-1.46,2.983-1.46c1.426,0,2.513,0.563,3.262,1.689V337h1.162v15
			h-1.094l-0.049-1.406c-0.749,1.067-1.849,1.602-3.301,1.602c-1.217,0-2.199-0.49-2.944-1.47s-1.118-2.303-1.118-3.97V346.619z
			 M237.313,346.824c0,1.348,0.27,2.41,0.811,3.188s1.302,1.167,2.285,1.167c1.439,0,2.461-0.635,3.066-1.904v-4.961
			c-0.605-1.374-1.621-2.061-3.047-2.061c-0.983,0-1.748,0.386-2.295,1.157S237.313,345.32,237.313,346.824z"/>
		<path d="M254.384,352c-0.117-0.332-0.192-0.823-0.225-1.475c-0.41,0.534-0.933,0.945-1.567,1.235s-1.307,0.435-2.017,0.435
			c-1.016,0-1.837-0.283-2.466-0.85s-0.942-1.282-0.942-2.148c0-1.028,0.428-1.843,1.284-2.441s2.049-0.898,3.579-0.898h2.119
			v-1.201c0-0.755-0.233-1.35-0.698-1.782s-1.144-0.649-2.036-0.649c-0.814,0-1.488,0.208-2.021,0.625s-0.801,0.918-0.801,1.504
			l-1.172-0.01c0-0.84,0.391-1.567,1.172-2.183s1.742-0.923,2.881-0.923c1.178,0,2.108,0.295,2.788,0.884s1.03,1.411,1.05,2.466v5
			c0,1.022,0.107,1.787,0.322,2.295V352H254.384z M250.712,351.16c0.781,0,1.479-0.188,2.095-0.566s1.063-0.882,1.343-1.514v-2.324
			h-2.09c-1.166,0.013-2.077,0.227-2.734,0.64s-0.986,0.981-0.986,1.704c0,0.593,0.22,1.084,0.659,1.475
			S250.009,351.16,250.712,351.16z"/>
		<path d="M261.63,350.32l3.086-8.887h1.26l-4.512,12.363l-0.234,0.547c-0.579,1.282-1.475,1.924-2.686,1.924
			c-0.28,0-0.579-0.046-0.898-0.137l-0.01-0.967l0.605,0.059c0.573,0,1.037-0.142,1.392-0.425s0.656-0.77,0.903-1.46l0.518-1.426
			l-3.984-10.479h1.279L261.63,350.32z"/>
		<path d="M274.11,349.314c0-0.579-0.232-1.045-0.698-1.396s-1.167-0.627-2.104-0.825s-1.665-0.427-2.183-0.684
			s-0.901-0.571-1.152-0.942s-0.376-0.82-0.376-1.348c0-0.833,0.349-1.521,1.045-2.065s1.589-0.815,2.676-0.815
			c1.179,0,2.124,0.291,2.837,0.874s1.069,1.343,1.069,2.28h-1.172c0-0.618-0.259-1.133-0.776-1.543s-1.17-0.615-1.958-0.615
			c-0.769,0-1.385,0.171-1.851,0.513s-0.698,0.786-0.698,1.333c0,0.527,0.193,0.936,0.581,1.226s1.094,0.555,2.119,0.796
			s1.794,0.498,2.305,0.771s0.891,0.603,1.138,0.986s0.371,0.85,0.371,1.396c0,0.892-0.359,1.604-1.079,2.139
			s-1.658,0.801-2.817,0.801c-1.23,0-2.229-0.298-2.993-0.894s-1.147-1.35-1.147-2.261h1.172c0.046,0.684,0.334,1.216,0.864,1.597
			s1.232,0.571,2.104,0.571c0.813,0,1.472-0.179,1.973-0.537S274.11,349.861,274.11,349.314z"/>
		<path d="M291.493,352h-8.906v-0.898l4.873-5.527c0.808-0.931,1.367-1.699,1.68-2.305s0.469-1.194,0.469-1.768
			c0-0.898-0.264-1.609-0.791-2.134s-1.253-0.786-2.178-0.786c-0.957,0-1.73,0.306-2.319,0.918s-0.884,1.406-0.884,2.383h-1.162
			c0-0.801,0.181-1.53,0.542-2.188s0.876-1.174,1.543-1.548s1.428-0.562,2.28-0.562c1.302,0,2.319,0.342,3.052,1.025
			s1.099,1.614,1.099,2.793c0,0.664-0.207,1.39-0.62,2.178s-1.141,1.771-2.183,2.949l-3.965,4.482h7.471V352z"/>
		<path d="M302.245,346.072c0,2.005-0.368,3.527-1.104,4.565s-1.819,1.558-3.252,1.558c-1.406,0-2.483-0.51-3.232-1.528
			s-1.133-2.502-1.152-4.448v-2.549c0-1.999,0.371-3.513,1.113-4.541s1.826-1.543,3.252-1.543c1.406,0,2.48,0.496,3.223,1.489
			s1.126,2.456,1.152,4.39V346.072z M301.073,343.523c0-1.628-0.266-2.858-0.796-3.691s-1.333-1.25-2.407-1.25
			c-1.055,0-1.849,0.407-2.383,1.221s-0.808,2.015-0.82,3.604v2.793c0,1.621,0.275,2.861,0.825,3.721s1.35,1.289,2.397,1.289
			c1.042,0,1.831-0.42,2.368-1.26s0.809-2.07,0.815-3.691V343.523z"/>
		<path d="M310.194,352h-1.172v-12.812l-3.867,1.436v-1.094l4.844-1.797h0.195V352z"/>
		<path d="M324.599,338.455L318.524,352h-1.221l6.035-13.223h-8.086v-0.996h9.346V338.455z"/>
		<path d="M332.812,352v-9.609h-1.748v-0.957h1.748v-1.279c0-1.081,0.275-1.911,0.825-2.49s1.316-0.869,2.3-0.869
			c0.442,0,0.856,0.055,1.24,0.164l-0.088,0.969c-0.325-0.078-0.681-0.117-1.064-0.117c-0.645,0-1.146,0.201-1.504,0.603
			s-0.537,0.971-0.537,1.708v1.312h2.52v0.957h-2.52V352H332.812z"/>
		<path d="M343.476,342.43c-0.247-0.046-0.511-0.068-0.791-0.068c-0.729,0-1.346,0.203-1.851,0.61s-0.864,0.998-1.079,1.772V352
			h-1.162v-10.566h1.143l0.02,1.68c0.618-1.25,1.611-1.875,2.979-1.875c0.325,0,0.583,0.042,0.771,0.127L343.476,342.43z"/>
		<path d="M344.481,346.561c0-1.016,0.197-1.931,0.591-2.744s0.95-1.447,1.67-1.899s1.535-0.679,2.446-0.679
			c1.406,0,2.546,0.493,3.418,1.479s1.309,2.293,1.309,3.921v0.244c0,1.022-0.197,1.941-0.591,2.759s-0.949,1.447-1.665,1.89
			s-1.533,0.664-2.451,0.664c-1.399,0-2.537-0.493-3.413-1.479s-1.313-2.293-1.313-3.921V346.561z M345.653,346.883
			c0,1.263,0.327,2.3,0.981,3.11s1.512,1.216,2.573,1.216c1.055,0,1.909-0.405,2.563-1.216s0.981-1.88,0.981-3.208v-0.225
			c0-0.808-0.149-1.546-0.449-2.217s-0.72-1.189-1.26-1.558s-1.159-0.552-1.855-0.552c-1.042,0-1.892,0.408-2.549,1.226
			s-0.986,1.887-0.986,3.208V346.883z"/>
		<path d="M357.392,341.434l0.039,1.719c0.391-0.638,0.879-1.116,1.465-1.436s1.237-0.479,1.953-0.479
			c1.667,0,2.725,0.684,3.174,2.051c0.378-0.657,0.882-1.164,1.514-1.519s1.328-0.532,2.09-0.532c2.266,0,3.421,1.237,3.467,3.711
			V352h-1.172v-6.963c-0.007-0.944-0.21-1.644-0.61-2.1s-1.053-0.684-1.958-0.684c-0.84,0.013-1.55,0.285-2.129,0.815
			s-0.901,1.177-0.967,1.938V352h-1.172v-7.051c-0.007-0.905-0.22-1.58-0.64-2.026s-1.066-0.669-1.938-0.669
			c-0.735,0-1.367,0.21-1.895,0.63s-0.918,1.043-1.172,1.87V352h-1.172v-10.566H357.392z"/>
		<path d="M152.499,369.781l5.244,12.549l5.264-12.549h1.602V384h-1.201v-6.191l0.098-6.348L158.212,384h-0.928l-5.273-12.49
			l0.098,6.26V384h-1.201v-14.219H152.499z"/>
		<path d="M167.294,378.561c0-1.016,0.197-1.931,0.591-2.744s0.951-1.447,1.67-1.899s1.535-0.679,2.446-0.679
			c1.406,0,2.545,0.493,3.418,1.479s1.309,2.293,1.309,3.921v0.244c0,1.022-0.197,1.941-0.591,2.759s-0.949,1.447-1.665,1.89
			s-1.533,0.664-2.451,0.664c-1.4,0-2.538-0.493-3.413-1.479s-1.313-2.293-1.313-3.921V378.561z M168.466,378.883
			c0,1.263,0.327,2.3,0.981,3.11s1.512,1.216,2.573,1.216c1.055,0,1.909-0.405,2.563-1.216s0.981-1.88,0.981-3.208v-0.225
			c0-0.808-0.15-1.546-0.449-2.217s-0.719-1.189-1.26-1.558s-1.159-0.552-1.855-0.552c-1.042,0-1.891,0.408-2.549,1.226
			s-0.986,1.887-0.986,3.208V378.883z"/>
		<path d="M185.81,384c-0.117-0.332-0.192-0.823-0.225-1.475c-0.41,0.534-0.933,0.945-1.567,1.235s-1.307,0.435-2.017,0.435
			c-1.016,0-1.837-0.283-2.466-0.85s-0.942-1.282-0.942-2.148c0-1.028,0.428-1.843,1.284-2.441s2.049-0.898,3.579-0.898h2.119
			v-1.201c0-0.755-0.233-1.35-0.698-1.782s-1.144-0.649-2.036-0.649c-0.814,0-1.488,0.208-2.021,0.625s-0.801,0.918-0.801,1.504
			l-1.172-0.01c0-0.84,0.391-1.567,1.172-2.183s1.742-0.923,2.881-0.923c1.178,0,2.108,0.295,2.788,0.884s1.03,1.411,1.05,2.466v5
			c0,1.022,0.107,1.787,0.322,2.295V384H185.81z M182.138,383.16c0.781,0,1.479-0.188,2.095-0.566s1.063-0.882,1.343-1.514v-2.324
			h-2.09c-1.166,0.013-2.077,0.227-2.734,0.64s-0.986,0.981-0.986,1.704c0,0.593,0.22,1.084,0.659,1.475
			S181.435,383.16,182.138,383.16z"/>
		<path d="M194.735,374.43c-0.248-0.046-0.511-0.068-0.791-0.068c-0.729,0-1.346,0.203-1.851,0.61s-0.864,0.998-1.079,1.772V384
			h-1.162v-10.566h1.143l0.02,1.68c0.619-1.25,1.611-1.875,2.979-1.875c0.326,0,0.583,0.042,0.771,0.127L194.735,374.43z"/>
		<path d="M210.976,370.797h-4.873V384h-1.201v-13.203h-4.863v-1.016h10.938V370.797z"/>
		<path d="M216.122,384.195c-0.898,0-1.71-0.222-2.437-0.664s-1.291-1.06-1.694-1.851s-0.605-1.678-0.605-2.661v-0.42
			c0-1.016,0.197-1.931,0.591-2.744s0.942-1.453,1.646-1.919s1.465-0.698,2.285-0.698c1.283,0,2.3,0.438,3.052,1.313
			s1.128,2.072,1.128,3.589v0.654h-7.539v0.225c0,1.198,0.343,2.195,1.03,2.993s1.551,1.196,2.593,1.196
			c0.625,0,1.177-0.114,1.655-0.342s0.913-0.593,1.304-1.094l0.732,0.557C219.003,383.573,217.756,384.195,216.122,384.195z
			 M215.907,374.234c-0.879,0-1.62,0.322-2.222,0.967s-0.968,1.511-1.099,2.598h6.338v-0.127c-0.033-1.016-0.322-1.843-0.869-2.48
			S216.792,374.234,215.907,374.234z"/>
		<path d="M226.269,383.209c0.814,0,1.496-0.229,2.046-0.688s0.848-1.053,0.894-1.782h1.123c-0.033,0.645-0.234,1.232-0.605,1.763
			s-0.864,0.945-1.479,1.245s-1.274,0.449-1.978,0.449c-1.387,0-2.485-0.481-3.296-1.445s-1.216-2.259-1.216-3.887v-0.352
			c0-1.042,0.182-1.963,0.547-2.764s0.887-1.419,1.567-1.855s1.476-0.654,2.388-0.654c1.159,0,2.114,0.345,2.866,1.035
			s1.154,1.599,1.206,2.725h-1.123c-0.052-0.827-0.35-1.494-0.894-2.002s-1.229-0.762-2.056-0.762c-1.055,0-1.874,0.381-2.456,1.143
			s-0.874,1.829-0.874,3.203v0.342c0,1.348,0.292,2.399,0.874,3.154S225.208,383.209,226.269,383.209z"/>
		<path d="M233.827,375.221c0.384-0.632,0.875-1.12,1.475-1.465s1.253-0.518,1.963-0.518c1.133,0,1.976,0.319,2.529,0.957
			s0.833,1.595,0.84,2.871V384h-1.162v-6.943c-0.006-0.944-0.207-1.647-0.601-2.109s-1.024-0.693-1.89-0.693
			c-0.723,0-1.362,0.227-1.919,0.679s-0.968,1.062-1.235,1.831V384h-1.162v-15h1.162V375.221z"/>
		<path d="M244.755,373.434l0.039,1.807c0.397-0.651,0.892-1.147,1.484-1.489s1.247-0.513,1.963-0.513
			c1.133,0,1.976,0.319,2.529,0.957s0.833,1.595,0.84,2.871V384h-1.162v-6.943c-0.006-0.944-0.207-1.647-0.601-2.109
			s-1.024-0.693-1.89-0.693c-0.723,0-1.362,0.227-1.919,0.679s-0.968,1.062-1.235,1.831V384h-1.162v-10.566H244.755z"/>
		<path d="M253.983,378.561c0-1.016,0.197-1.931,0.591-2.744s0.951-1.447,1.67-1.899s1.535-0.679,2.446-0.679
			c1.406,0,2.546,0.493,3.418,1.479s1.309,2.293,1.309,3.921v0.244c0,1.022-0.197,1.941-0.591,2.759s-0.949,1.447-1.665,1.89
			s-1.533,0.664-2.451,0.664c-1.399,0-2.538-0.493-3.413-1.479s-1.313-2.293-1.313-3.921V378.561z M255.155,378.883
			c0,1.263,0.327,2.3,0.981,3.11s1.512,1.216,2.573,1.216c1.055,0,1.909-0.405,2.563-1.216s0.981-1.88,0.981-3.208v-0.225
			c0-0.808-0.149-1.546-0.449-2.217s-0.72-1.189-1.26-1.558s-1.159-0.552-1.855-0.552c-1.042,0-1.891,0.408-2.549,1.226
			s-0.986,1.887-0.986,3.208V378.883z"/>
		<path d="M267.138,384h-1.172v-15h1.172V384z"/>
		<path d="M269.667,378.561c0-1.016,0.197-1.931,0.591-2.744s0.95-1.447,1.67-1.899s1.535-0.679,2.446-0.679
			c1.406,0,2.546,0.493,3.418,1.479s1.309,2.293,1.309,3.921v0.244c0,1.022-0.197,1.941-0.591,2.759s-0.949,1.447-1.665,1.89
			s-1.533,0.664-2.451,0.664c-1.399,0-2.537-0.493-3.413-1.479s-1.313-2.293-1.313-3.921V378.561z M270.839,378.883
			c0,1.263,0.327,2.3,0.981,3.11s1.512,1.216,2.573,1.216c1.055,0,1.909-0.405,2.563-1.216s0.981-1.88,0.981-3.208v-0.225
			c0-0.808-0.149-1.546-0.449-2.217s-0.72-1.189-1.26-1.558s-1.159-0.552-1.855-0.552c-1.042,0-1.892,0.408-2.549,1.226
			s-0.986,1.887-0.986,3.208V378.883z"/>
		<path d="M281.044,378.619c0-1.653,0.366-2.964,1.099-3.931s1.727-1.45,2.983-1.45c1.438,0,2.532,0.573,3.281,1.719l0.059-1.523
			h1.094v10.352c0,1.36-0.381,2.438-1.143,3.232s-1.794,1.191-3.096,1.191c-0.735,0-1.438-0.164-2.104-0.493
			s-1.193-0.767-1.577-1.313l0.654-0.703c0.827,1.016,1.81,1.523,2.949,1.523c0.977,0,1.738-0.288,2.285-0.864
			s0.83-1.375,0.85-2.397v-1.328c-0.749,1.042-1.839,1.562-3.271,1.562c-1.224,0-2.207-0.488-2.949-1.465s-1.113-2.295-1.113-3.955
			V378.619z M282.226,378.824c0,1.348,0.271,2.41,0.811,3.188s1.302,1.167,2.285,1.167c1.438,0,2.458-0.645,3.057-1.934v-4.912
			c-0.273-0.677-0.667-1.193-1.182-1.548s-1.133-0.532-1.855-0.532c-0.983,0-1.748,0.386-2.295,1.157
			S282.226,377.32,282.226,378.824z"/>
		<path d="M292.538,370.382c0-0.22,0.071-0.406,0.215-0.558c0.144-0.152,0.339-0.229,0.586-0.229s0.444,0.076,0.591,0.229
			c0.146,0.151,0.22,0.338,0.22,0.558s-0.073,0.404-0.22,0.553c-0.146,0.149-0.344,0.224-0.591,0.224s-0.442-0.074-0.586-0.224
			C292.609,370.786,292.538,370.602,292.538,370.382z M293.915,384h-1.172v-10.566h1.172V384z"/>
		<path d="M301.181,384.195c-0.898,0-1.711-0.222-2.437-0.664s-1.291-1.06-1.694-1.851s-0.605-1.678-0.605-2.661v-0.42
			c0-1.016,0.197-1.931,0.591-2.744s0.942-1.453,1.646-1.919s1.465-0.698,2.285-0.698c1.282,0,2.3,0.438,3.052,1.313
			s1.128,2.072,1.128,3.589v0.654h-7.539v0.225c0,1.198,0.344,2.195,1.03,2.993s1.551,1.196,2.593,1.196
			c0.625,0,1.177-0.114,1.655-0.342s0.913-0.593,1.304-1.094l0.732,0.557C304.062,383.573,302.814,384.195,301.181,384.195z
			 M300.966,374.234c-0.879,0-1.619,0.322-2.222,0.967s-0.969,1.511-1.099,2.598h6.338v-0.127c-0.032-1.016-0.322-1.843-0.869-2.48
			S301.852,374.234,300.966,374.234z"/>
		<path d="M313.749,381.314c0-0.579-0.232-1.045-0.698-1.396s-1.167-0.627-2.104-0.825s-1.665-0.427-2.183-0.684
			s-0.901-0.571-1.152-0.942s-0.376-0.82-0.376-1.348c0-0.833,0.349-1.521,1.045-2.065s1.589-0.815,2.676-0.815
			c1.179,0,2.124,0.291,2.837,0.874s1.069,1.343,1.069,2.28h-1.172c0-0.618-0.259-1.133-0.776-1.543s-1.17-0.615-1.958-0.615
			c-0.769,0-1.385,0.171-1.851,0.513s-0.698,0.786-0.698,1.333c0,0.527,0.193,0.936,0.581,1.226s1.094,0.555,2.119,0.796
			s1.794,0.498,2.305,0.771s0.891,0.603,1.138,0.986s0.371,0.85,0.371,1.396c0,0.892-0.359,1.604-1.079,2.139
			s-1.658,0.801-2.817,0.801c-1.23,0-2.229-0.298-2.993-0.894s-1.147-1.35-1.147-2.261h1.172c0.046,0.684,0.334,1.216,0.864,1.597
			s1.232,0.571,2.104,0.571c0.813,0,1.472-0.179,1.973-0.537S313.749,381.861,313.749,381.314z"/>
		<path d="M332.753,379.566c-0.163,1.497-0.698,2.644-1.606,3.438s-2.117,1.191-3.628,1.191c-1.055,0-1.987-0.264-2.798-0.791
			s-1.438-1.274-1.88-2.241s-0.667-2.072-0.674-3.315v-1.846c0-1.263,0.222-2.383,0.664-3.359s1.079-1.73,1.909-2.261
			s1.785-0.796,2.866-0.796c1.523,0,2.727,0.41,3.608,1.23s1.395,1.956,1.538,3.408h-1.211c-0.3-2.415-1.611-3.623-3.936-3.623
			c-1.289,0-2.316,0.482-3.081,1.446c-0.765,0.965-1.147,2.297-1.147,3.997v1.74c0,1.642,0.373,2.951,1.118,3.929
			s1.753,1.466,3.022,1.466c1.257,0,2.204-0.301,2.842-0.903s1.032-1.506,1.182-2.71H332.753z"/>
		<path d="M334.755,378.561c0-1.016,0.197-1.931,0.591-2.744s0.95-1.447,1.67-1.899s1.535-0.679,2.446-0.679
			c1.406,0,2.546,0.493,3.418,1.479s1.309,2.293,1.309,3.921v0.244c0,1.022-0.197,1.941-0.591,2.759s-0.949,1.447-1.665,1.89
			s-1.533,0.664-2.451,0.664c-1.399,0-2.537-0.493-3.413-1.479s-1.313-2.293-1.313-3.921V378.561z M335.927,378.883
			c0,1.263,0.327,2.3,0.981,3.11s1.512,1.216,2.573,1.216c1.055,0,1.909-0.405,2.563-1.216s0.981-1.88,0.981-3.208v-0.225
			c0-0.808-0.149-1.546-0.449-2.217s-0.72-1.189-1.26-1.558s-1.159-0.552-1.855-0.552c-1.042,0-1.892,0.408-2.549,1.226
			s-0.986,1.887-0.986,3.208V378.883z"/>
		<path d="M351.483,374.43c-0.247-0.046-0.511-0.068-0.791-0.068c-0.729,0-1.346,0.203-1.851,0.61s-0.864,0.998-1.079,1.772V384
			h-1.162v-10.566h1.143l0.02,1.68c0.618-1.25,1.611-1.875,2.979-1.875c0.325,0,0.583,0.042,0.771,0.127L351.483,374.43z"/>
		<path d="M361.825,378.824c0,1.647-0.364,2.954-1.094,3.921s-1.706,1.45-2.93,1.45c-1.445,0-2.552-0.508-3.32-1.523v5.391h-1.162
			v-14.629h1.084l0.059,1.494c0.762-1.126,1.865-1.689,3.311-1.689c1.263,0,2.254,0.479,2.974,1.436s1.079,2.285,1.079,3.984
			V378.824z M360.653,378.619c0-1.348-0.276-2.412-0.83-3.193s-1.325-1.172-2.314-1.172c-0.716,0-1.331,0.173-1.846,0.518
			s-0.908,0.847-1.182,1.504v5.068c0.28,0.605,0.681,1.067,1.201,1.387s1.136,0.479,1.846,0.479c0.983,0,1.75-0.393,2.3-1.177
			S360.653,380.11,360.653,378.619z"/>
		<path d="M101.996,401.781l5.244,12.549l5.264-12.549h1.602V416h-1.201v-6.191l0.098-6.348L107.709,416h-0.928l-5.273-12.49
			l0.098,6.26V416h-1.201v-14.219H101.996z"/>
		<path d="M124.105,416c-0.117-0.332-0.192-0.823-0.225-1.475c-0.41,0.534-0.933,0.945-1.567,1.235s-1.307,0.435-2.017,0.435
			c-1.016,0-1.837-0.283-2.466-0.85s-0.942-1.282-0.942-2.148c0-1.028,0.428-1.843,1.284-2.441s2.049-0.898,3.579-0.898h2.119
			v-1.201c0-0.755-0.233-1.35-0.698-1.782s-1.144-0.649-2.036-0.649c-0.814,0-1.488,0.208-2.021,0.625s-0.801,0.918-0.801,1.504
			l-1.172-0.01c0-0.84,0.391-1.567,1.172-2.183s1.742-0.923,2.881-0.923c1.178,0,2.108,0.295,2.788,0.884s1.03,1.411,1.05,2.466v5
			c0,1.022,0.107,1.787,0.322,2.295V416H124.105z M120.434,415.16c0.781,0,1.479-0.188,2.095-0.566s1.063-0.882,1.343-1.514v-2.324
			h-2.09c-1.166,0.013-2.077,0.227-2.734,0.64s-0.986,0.981-0.986,1.704c0,0.593,0.22,1.084,0.659,1.475
			S119.73,415.16,120.434,415.16z"/>
		<path d="M127.68,410.619c0-1.641,0.366-2.947,1.099-3.921s1.727-1.46,2.983-1.46c1.426,0,2.513,0.563,3.262,1.689V401h1.162v15
			h-1.094l-0.049-1.406c-0.749,1.067-1.849,1.602-3.301,1.602c-1.217,0-2.199-0.49-2.944-1.47s-1.118-2.303-1.118-3.97V410.619z
			 M128.861,410.824c0,1.348,0.27,2.41,0.811,3.188s1.302,1.167,2.285,1.167c1.439,0,2.461-0.635,3.066-1.904v-4.961
			c-0.605-1.374-1.621-2.061-3.047-2.061c-0.983,0-1.748,0.386-2.295,1.157S128.861,409.32,128.861,410.824z"/>
		<path d="M143.354,416.195c-0.898,0-1.71-0.222-2.437-0.664s-1.291-1.06-1.694-1.851s-0.605-1.678-0.605-2.661v-0.42
			c0-1.016,0.197-1.931,0.591-2.744s0.942-1.453,1.646-1.919s1.465-0.698,2.285-0.698c1.283,0,2.3,0.438,3.052,1.313
			s1.128,2.072,1.128,3.589v0.654h-7.539v0.225c0,1.198,0.343,2.195,1.03,2.993s1.551,1.196,2.593,1.196
			c0.625,0,1.177-0.114,1.655-0.342s0.913-0.593,1.304-1.094l0.732,0.557C146.234,415.573,144.988,416.195,143.354,416.195z
			 M143.139,406.234c-0.879,0-1.62,0.322-2.222,0.967s-0.968,1.511-1.099,2.598h6.338v-0.127c-0.033-1.016-0.322-1.843-0.869-2.48
			S144.024,406.234,143.139,406.234z"/>
		<path d="M156.986,413.568l0.176,0.908l0.234-0.957l2.539-8.086h0.996l2.51,8.018l0.273,1.113l0.225-1.025l2.168-8.105h1.211
			L164.242,416h-0.996l-2.715-8.379l-0.127-0.576l-0.127,0.586L157.611,416h-0.996l-3.066-10.566h1.201L156.986,413.568z"/>
		<path d="M169.467,402.382c0-0.22,0.072-0.406,0.215-0.558c0.143-0.152,0.338-0.229,0.586-0.229s0.444,0.076,0.591,0.229
			c0.146,0.151,0.22,0.338,0.22,0.558s-0.073,0.404-0.22,0.553c-0.146,0.149-0.343,0.224-0.591,0.224s-0.443-0.074-0.586-0.224
			C169.539,402.786,169.467,402.602,169.467,402.382z M170.844,416h-1.172v-10.566h1.172V416z"/>
		<path d="M175.834,402.729v2.705h2.188v0.957h-2.188v7.049c0,0.587,0.106,1.023,0.317,1.311c0.211,0.286,0.565,0.43,1.06,0.43
			c0.195,0,0.511-0.032,0.947-0.098l0.049,0.949c-0.306,0.109-0.723,0.164-1.25,0.164c-0.801,0-1.383-0.232-1.748-0.698
			s-0.547-1.15-0.547-2.056v-7.051h-1.943v-0.957h1.943v-2.705H175.834z"/>
		<path d="M181.605,407.221c0.384-0.632,0.875-1.12,1.475-1.465s1.253-0.518,1.963-0.518c1.133,0,1.976,0.319,2.529,0.957
			s0.833,1.595,0.84,2.871V416h-1.162v-6.943c-0.006-0.944-0.207-1.647-0.601-2.109s-1.024-0.693-1.89-0.693
			c-0.723,0-1.362,0.227-1.919,0.679s-0.968,1.062-1.235,1.831V416h-1.162v-15h1.162V407.221z"/>
		<path d="M201.283,412.475l3.223-10.693h3.262L202.816,416h-3.057l-4.932-14.219h3.252L201.283,412.475z"/>
		<path d="M214.369,410.795h-2.334V416h-2.93v-14.219h5.283c1.68,0,2.975,0.374,3.887,1.123s1.367,1.807,1.367,3.174
			c0,0.97-0.21,1.779-0.63,2.427s-1.056,1.164-1.909,1.548l3.076,5.811V416h-3.145L214.369,410.795z M212.035,408.422h2.363
			c0.736,0,1.305-0.188,1.709-0.562s0.605-0.891,0.605-1.548c0-0.671-0.19-1.198-0.571-1.582s-0.965-0.576-1.753-0.576h-2.354
			V408.422z"/>
		<path d="M233.031,411.264c-0.111,1.53-0.675,2.734-1.694,3.613s-2.362,1.318-4.028,1.318c-1.823,0-3.257-0.613-4.302-1.841
			s-1.567-2.912-1.567-5.054v-0.869c0-1.367,0.241-2.571,0.723-3.613s1.17-1.841,2.065-2.397s1.935-0.835,3.12-0.835
			c1.641,0,2.962,0.439,3.965,1.318s1.582,2.112,1.738,3.701h-2.93c-0.072-0.918-0.327-1.584-0.767-1.997s-1.108-0.62-2.007-0.62
			c-0.977,0-1.708,0.35-2.192,1.05s-0.734,1.785-0.747,3.257v1.074c0,1.536,0.233,2.659,0.698,3.369s1.2,1.064,2.202,1.064
			c0.905,0,1.581-0.207,2.026-0.62s0.702-1.053,0.767-1.919H233.031z"/>
		<path d="M234.33,410.619c0-1.048,0.202-1.982,0.605-2.803s0.985-1.455,1.743-1.904s1.639-0.674,2.642-0.674
			c1.426,0,2.589,0.437,3.491,1.309s1.405,2.058,1.509,3.555l0.02,0.723c0,1.621-0.453,2.922-1.357,3.901s-2.119,1.47-3.643,1.47
			s-2.739-0.488-3.647-1.465s-1.362-2.305-1.362-3.984V410.619z M237.152,410.819c0,1.004,0.189,1.772,0.566,2.304
			s0.918,0.797,1.621,0.797c0.684,0,1.217-0.263,1.602-0.787c0.384-0.525,0.576-1.364,0.576-2.519c0-0.984-0.192-1.748-0.576-2.289
			s-0.924-0.812-1.621-0.812c-0.69,0-1.224,0.269-1.602,0.807S237.152,409.691,237.152,410.819z"/>
		<path d="M248.676,405.434l0.088,1.221c0.755-0.944,1.768-1.416,3.037-1.416c1.12,0,1.953,0.329,2.5,0.986s0.827,1.641,0.84,2.949
			V416h-2.822v-6.758c0-0.599-0.13-1.033-0.391-1.304s-0.693-0.405-1.299-0.405c-0.794,0-1.39,0.339-1.787,1.016V416h-2.822v-10.566
			H248.676z"/>
		<path d="M260.658,402.836v2.598h1.807v2.07h-1.807v5.273c0,0.391,0.075,0.671,0.225,0.84s0.437,0.254,0.859,0.254
			c0.312,0,0.589-0.022,0.83-0.068v2.139c-0.554,0.169-1.123,0.254-1.709,0.254c-1.979,0-2.988-0.999-3.027-2.998v-5.693h-1.543
			v-2.07h1.543v-2.598H260.658z"/>
		<path d="M269.975,408.08c-0.384-0.052-0.723-0.078-1.016-0.078c-1.067,0-1.768,0.361-2.1,1.084V416h-2.822v-10.566h2.666
			l0.078,1.26c0.566-0.97,1.351-1.455,2.354-1.455c0.312,0,0.605,0.042,0.879,0.127L269.975,408.08z"/>
		<path d="M270.541,410.619c0-1.048,0.202-1.982,0.605-2.803s0.984-1.455,1.743-1.904s1.639-0.674,2.642-0.674
			c1.426,0,2.59,0.437,3.491,1.309s1.404,2.058,1.509,3.555l0.02,0.723c0,1.621-0.452,2.922-1.357,3.901s-2.119,1.47-3.643,1.47
			s-2.739-0.488-3.647-1.465s-1.362-2.305-1.362-3.984V410.619z M273.363,410.819c0,1.004,0.188,1.772,0.566,2.304
			s0.918,0.797,1.621,0.797c0.684,0,1.218-0.263,1.602-0.787c0.384-0.525,0.576-1.364,0.576-2.519c0-0.984-0.192-1.748-0.576-2.289
			s-0.925-0.812-1.621-0.812c-0.69,0-1.224,0.269-1.602,0.807S273.363,409.691,273.363,410.819z"/>
		<path d="M285.268,416h-2.832v-15h2.832V416z"/>
		<path d="M290.57,416h-2.832v-15h2.832V416z"/>
		<path d="M297.758,416.195c-1.55,0-2.811-0.476-3.784-1.426s-1.46-2.217-1.46-3.799v-0.273c0-1.062,0.205-2.01,0.615-2.847
			s0.991-1.481,1.743-1.934s1.609-0.679,2.573-0.679c1.445,0,2.583,0.456,3.413,1.367s1.245,2.204,1.245,3.877v1.152h-6.729
			c0.091,0.69,0.366,1.243,0.825,1.66s1.04,0.625,1.743,0.625c1.087,0,1.937-0.394,2.549-1.182l1.387,1.553
			c-0.423,0.599-0.996,1.066-1.719,1.401S298.637,416.195,297.758,416.195z M297.436,407.514c-0.56,0-1.014,0.189-1.362,0.569
			c-0.349,0.379-0.571,0.922-0.669,1.628h3.926v-0.226c-0.013-0.628-0.183-1.113-0.508-1.457
			C298.497,407.686,298.034,407.514,297.436,407.514z"/>
		<path d="M309.643,408.08c-0.384-0.052-0.723-0.078-1.016-0.078c-1.067,0-1.768,0.361-2.1,1.084V416h-2.822v-10.566h2.666
			l0.078,1.26c0.566-0.97,1.351-1.455,2.354-1.455c0.312,0,0.605,0.042,0.879,0.127L309.643,408.08z"/>
		<path d="M317.143,416v-9.609h-1.748v-0.957h1.748v-1.279c0-1.081,0.275-1.911,0.825-2.49s1.316-0.869,2.3-0.869
			c0.442,0,0.856,0.055,1.24,0.164l-0.088,0.969c-0.325-0.078-0.681-0.117-1.064-0.117c-0.645,0-1.146,0.201-1.504,0.603
			s-0.537,0.971-0.537,1.708v1.312h2.52v0.957h-2.52V416H317.143z"/>
		<path d="M322.279,410.561c0-1.016,0.197-1.931,0.591-2.744s0.95-1.447,1.67-1.899s1.535-0.679,2.446-0.679
			c1.406,0,2.546,0.493,3.418,1.479s1.309,2.293,1.309,3.921v0.244c0,1.022-0.197,1.941-0.591,2.759s-0.949,1.447-1.665,1.89
			s-1.533,0.664-2.451,0.664c-1.399,0-2.537-0.493-3.413-1.479s-1.313-2.293-1.313-3.921V410.561z M323.451,410.883
			c0,1.263,0.327,2.3,0.981,3.11s1.512,1.216,2.573,1.216c1.055,0,1.909-0.405,2.563-1.216s0.981-1.88,0.981-3.208v-0.225
			c0-0.808-0.149-1.546-0.449-2.217s-0.72-1.189-1.26-1.558s-1.159-0.552-1.855-0.552c-1.042,0-1.892,0.408-2.549,1.226
			s-0.986,1.887-0.986,3.208V410.883z"/>
		<path d="M339.008,406.43c-0.247-0.046-0.511-0.068-0.791-0.068c-0.729,0-1.346,0.203-1.851,0.61s-0.864,0.998-1.079,1.772V416
			h-1.162v-10.566h1.143l0.02,1.68c0.618-1.25,1.611-1.875,2.979-1.875c0.325,0,0.583,0.042,0.771,0.127L339.008,406.43z"/>
		<path d="M355.248,402.797h-4.873V416h-1.201v-13.203h-4.863v-1.016h10.938V402.797z"/>
		<path d="M358.432,407.221c0.384-0.632,0.876-1.12,1.475-1.465s1.253-0.518,1.963-0.518c1.133,0,1.976,0.319,2.529,0.957
			s0.833,1.595,0.84,2.871V416h-1.162v-6.943c-0.007-0.944-0.207-1.647-0.601-2.109s-1.023-0.693-1.89-0.693
			c-0.723,0-1.362,0.227-1.919,0.679s-0.969,1.062-1.235,1.831V416h-1.162v-15h1.162V407.221z"/>
		<path d="M373.129,406.43c-0.247-0.046-0.511-0.068-0.791-0.068c-0.729,0-1.346,0.203-1.851,0.61s-0.864,0.998-1.079,1.772V416
			h-1.162v-10.566h1.143l0.02,1.68c0.618-1.25,1.611-1.875,2.979-1.875c0.325,0,0.583,0.042,0.771,0.127L373.129,406.43z"/>
		<path d="M378.881,416.195c-0.898,0-1.711-0.222-2.437-0.664s-1.291-1.06-1.694-1.851s-0.605-1.678-0.605-2.661v-0.42
			c0-1.016,0.197-1.931,0.591-2.744s0.942-1.453,1.646-1.919s1.465-0.698,2.285-0.698c1.282,0,2.3,0.438,3.052,1.313
			s1.128,2.072,1.128,3.589v0.654h-7.539v0.225c0,1.198,0.344,2.195,1.03,2.993s1.551,1.196,2.593,1.196
			c0.625,0,1.177-0.114,1.655-0.342s0.913-0.593,1.304-1.094l0.732,0.557C381.762,415.573,380.515,416.195,378.881,416.195z
			 M378.666,406.234c-0.879,0-1.619,0.322-2.222,0.967s-0.969,1.511-1.099,2.598h6.338v-0.127c-0.032-1.016-0.322-1.843-0.869-2.48
			S379.552,406.234,378.666,406.234z"/>
		<path d="M389.213,416.195c-0.898,0-1.711-0.222-2.437-0.664s-1.291-1.06-1.694-1.851s-0.605-1.678-0.605-2.661v-0.42
			c0-1.016,0.197-1.931,0.591-2.744s0.942-1.453,1.646-1.919s1.465-0.698,2.285-0.698c1.282,0,2.3,0.438,3.052,1.313
			s1.128,2.072,1.128,3.589v0.654h-7.539v0.225c0,1.198,0.344,2.195,1.03,2.993s1.551,1.196,2.593,1.196
			c0.625,0,1.177-0.114,1.655-0.342s0.913-0.593,1.304-1.094l0.732,0.557C392.094,415.573,390.847,416.195,389.213,416.195z
			 M388.998,406.234c-0.879,0-1.619,0.322-2.222,0.967s-0.969,1.511-1.099,2.598h6.338v-0.127c-0.032-1.016-0.322-1.843-0.869-2.48
			S389.884,406.234,388.998,406.234z"/>
		<path d="M395.346,415.297c0-0.228,0.073-0.422,0.22-0.581s0.35-0.239,0.61-0.239s0.466,0.08,0.615,0.239s0.225,0.354,0.225,0.581
			s-0.075,0.415-0.225,0.562s-0.354,0.22-0.615,0.22s-0.464-0.073-0.61-0.22S395.346,415.524,395.346,415.297z"/>
		<path d="M401.488,405.434v11.826c0,0.977-0.234,1.722-0.703,2.236s-1.159,0.771-2.07,0.771c-0.352,0-0.693-0.062-1.025-0.184
			l0.02-0.959c0.286,0.085,0.579,0.127,0.879,0.127c1.159,0,1.738-0.668,1.738-2.003v-11.815H401.488z M400.912,401.596
			c0.254,0,0.452,0.076,0.596,0.229c0.144,0.151,0.215,0.338,0.215,0.558s-0.071,0.404-0.215,0.553
			c-0.144,0.149-0.342,0.224-0.596,0.224c-0.247,0-0.441-0.074-0.581-0.224c-0.14-0.148-0.21-0.333-0.21-0.553
			s0.07-0.406,0.21-0.558C400.471,401.672,400.665,401.596,400.912,401.596z"/>
		<path d="M411.117,413.314c0-0.579-0.232-1.045-0.698-1.396s-1.167-0.627-2.104-0.825s-1.665-0.427-2.183-0.684
			s-0.901-0.571-1.152-0.942s-0.376-0.82-0.376-1.348c0-0.833,0.349-1.521,1.045-2.065s1.589-0.815,2.676-0.815
			c1.179,0,2.124,0.291,2.837,0.874s1.069,1.343,1.069,2.28h-1.172c0-0.618-0.259-1.133-0.776-1.543s-1.17-0.615-1.958-0.615
			c-0.769,0-1.385,0.171-1.851,0.513s-0.698,0.786-0.698,1.333c0,0.527,0.193,0.936,0.581,1.226s1.094,0.555,2.119,0.796
			s1.794,0.498,2.305,0.771s0.891,0.603,1.138,0.986s0.371,0.85,0.371,1.396c0,0.892-0.359,1.604-1.079,2.139
			s-1.658,0.801-2.817,0.801c-1.23,0-2.229-0.298-2.993-0.894s-1.147-1.35-1.147-2.261h1.172c0.046,0.684,0.334,1.216,0.864,1.597
			s1.232,0.571,2.104,0.571c0.813,0,1.472-0.179,1.973-0.537S411.117,413.861,411.117,413.314z"/>
	</g>
</svg>