<?xml version="1.0" encoding="utf-8"?>
<!DOCTYPE svg PUBLIC "-//W3C//DTD SVG 1.1//EN" "http://www.w3.org/Graphics/SVG/1.1/DTD/svg11.dtd">
<svg version="1.1" xmlns="http://www.w3.org/2000/svg" xmlns:xlink="http://www.w3.org/1999/xlink" x="0px" y="0px"
	 viewBox="0 0 512 512" enable-background="new 0 0 512 512" xml:space="preserve"  width="512" height="512">
	<g>
		<path d="M189.056,112h-4.224v-11.616l-5.192-19.976h4.18l3.168,13.728h0.132l2.86-13.728h4.18l-5.104,19.976V112z"/>
		<path d="M201.023,112c-3.403,0-5.104-1.789-5.104-5.368V85.82c0-3.608,1.687-5.412,5.06-5.412h4.048
			c3.373,0,5.06,1.804,5.06,5.412v20.812c0,3.579-1.702,5.368-5.104,5.368H201.023z M202.035,108.172h2.156
			c1.114,0,1.672-0.616,1.672-1.848v-20.24c0-1.232-0.631-1.848-1.892-1.848h-1.98c-1.232,0-1.848,0.616-1.848,1.848v20.24
			C200.143,107.556,200.773,108.172,202.035,108.172z"/>
		<path d="M227.555,80.408v25.608c0,3.989-1.702,5.984-5.104,5.984h-3.564c-3.374,0-5.06-2.009-5.06-6.028V80.408h4.224v25.696
			c0,1.379,0.616,2.068,1.848,2.068h1.716c1.144,0,1.716-0.689,1.716-2.068V80.408H227.555z"/>
		<path d="M231.514,80.408h8.272c3.227,0,4.84,1.804,4.84,5.412v7.788c0,2.758-0.836,4.503-2.508,5.236L245.066,112h-4.004
			l-2.772-12.76h-2.552V112h-4.224V80.408z M235.738,95.632h2.772c1.261,0,1.892-0.762,1.892-2.288v-6.82
			c0-1.525-0.631-2.288-1.892-2.288h-2.772V95.632z"/>
		<path d="M263.281,88.9v-2.772c0-1.261-0.616-1.892-1.849-1.892h-0.659c-1.203,0-1.805,0.631-1.805,1.892v5.236
			c0,0.587,0.117,0.983,0.353,1.188c0.234,0.206,0.616,0.47,1.144,0.792l4.004,2.156c0.88,0.499,1.503,0.888,1.87,1.166
			c0.366,0.279,0.652,0.616,0.858,1.012c0.205,0.396,0.308,1.151,0.308,2.266v6.732c0,3.55-1.701,5.324-5.104,5.324h-2.597
			c-3.373,0-5.06-1.936-5.06-5.808v-1.584h4.224v1.716c0,1.232,0.631,1.848,1.893,1.848h0.748c1.114,0,1.672-0.616,1.672-1.848
			v-5.368c0-0.586-0.118-0.982-0.353-1.188c-0.234-0.205-0.615-0.469-1.144-0.792l-4.004-2.244c-0.88-0.469-1.518-0.865-1.914-1.188
			c-0.396-0.322-0.682-0.74-0.858-1.254c-0.176-0.513-0.264-1.181-0.264-2.002V85.82c0-3.608,1.687-5.412,5.06-5.412h2.641
			c3.373,0,5.06,1.804,5.06,5.412v3.08H263.281z"/>
		<path d="M283.653,104.608v2.024c0,3.579-1.688,5.368-5.061,5.368h-2.728c-3.374,0-5.061-1.789-5.061-5.368V85.776
			c0-3.578,1.687-5.368,5.061-5.368h2.728c3.373,0,5.061,1.79,5.061,5.368v3.564h-4.225v-3.256c0-1.232-0.631-1.848-1.892-1.848
			h-0.836c-1.115,0-1.672,0.616-1.672,1.848v20.24c0,1.232,0.557,1.848,1.672,1.848h1.056c1.114,0,1.672-0.616,1.672-1.848v-1.716
			H283.653z"/>
		<path d="M291.837,112c-3.403,0-5.104-1.789-5.104-5.368V85.82c0-3.608,1.687-5.412,5.061-5.412h4.048
			c3.373,0,5.06,1.804,5.06,5.412v20.812c0,3.579-1.701,5.368-5.104,5.368H291.837z M292.849,108.172h2.156
			c1.114,0,1.672-0.616,1.672-1.848v-20.24c0-1.232-0.631-1.848-1.893-1.848h-1.979c-1.232,0-1.848,0.616-1.848,1.848v20.24
			C290.957,107.556,291.587,108.172,292.849,108.172z"/>
		<path d="M304.641,80.408h8.271c3.227,0,4.84,1.804,4.84,5.412v7.788c0,2.758-0.836,4.503-2.508,5.236L318.192,112h-4.004
			l-2.772-12.76h-2.552V112h-4.224V80.408z M308.864,95.632h2.771c1.262,0,1.893-0.762,1.893-2.288v-6.82
			c0-1.525-0.631-2.288-1.893-2.288h-2.771V95.632z"/>
		<path d="M321.272,112V80.408h10.472v3.828h-6.248v9.592h5.544v3.828h-5.544v10.516h6.248V112H321.272z"/>
	</g>
	<g>
		<path d="M194.204,224v-14.344h-5.192V224h-4.224v-31.592h4.224v13.42h5.192v-13.42h4.224V224H194.204z"/>
		<path d="M202.387,224v-31.592h4.224V224H202.387z"/>
		<path d="M217.083,212.428V208.6h6.424V224h-8.272c-3.256,0-4.884-1.774-4.884-5.324V197.82c0-3.608,1.628-5.412,4.884-5.412h2.904
			c3.579,0,5.368,1.833,5.368,5.5v3.432h-4.224v-2.816c0-1.525-0.602-2.288-1.804-2.288h-1.056c-1.232,0-1.848,0.763-1.848,2.288
			v19.36c0,1.526,0.616,2.288,1.848,2.288h2.86v-7.744H217.083z"/>
		<path d="M236.354,224v-14.344h-5.192V224h-4.224v-31.592h4.224v13.42h5.192v-13.42h4.224V224H236.354z"/>
		<path d="M259.674,200.9v-2.772c0-1.261-0.616-1.892-1.849-1.892h-0.659c-1.204,0-1.804,0.631-1.804,1.892v5.236
			c0,0.587,0.117,0.983,0.352,1.188c0.234,0.206,0.616,0.47,1.144,0.792l4.004,2.156c0.88,0.499,1.503,0.888,1.87,1.166
			c0.366,0.279,0.652,0.616,0.858,1.012c0.205,0.396,0.308,1.151,0.308,2.266v6.732c0,3.55-1.701,5.324-5.104,5.324h-2.596
			c-3.374,0-5.06-1.936-5.06-5.808v-1.584h4.224v1.716c0,1.232,0.63,1.848,1.892,1.848h0.748c1.114,0,1.672-0.616,1.672-1.848
			v-5.368c0-0.586-0.118-0.982-0.353-1.188c-0.234-0.205-0.615-0.469-1.144-0.792l-4.004-2.244c-0.88-0.469-1.518-0.865-1.914-1.188
			c-0.396-0.322-0.682-0.74-0.858-1.254c-0.176-0.513-0.264-1.181-0.264-2.002v-6.468c0-3.608,1.687-5.412,5.06-5.412h2.64
			c3.373,0,5.06,1.804,5.06,5.412v3.08H259.674z"/>
		<path d="M280.046,216.608v2.024c0,3.579-1.688,5.368-5.061,5.368h-2.728c-3.374,0-5.061-1.789-5.061-5.368v-20.856
			c0-3.578,1.687-5.368,5.061-5.368h2.728c3.373,0,5.061,1.79,5.061,5.368v3.564h-4.225v-3.256c0-1.232-0.631-1.848-1.892-1.848
			h-0.836c-1.115,0-1.672,0.616-1.672,1.848v20.24c0,1.232,0.557,1.848,1.672,1.848h1.056c1.114,0,1.672-0.616,1.672-1.848v-1.716
			H280.046z"/>
		<path d="M288.229,224c-3.403,0-5.104-1.789-5.104-5.368V197.82c0-3.608,1.687-5.412,5.061-5.412h4.048
			c3.373,0,5.06,1.804,5.06,5.412v20.812c0,3.579-1.701,5.368-5.104,5.368H288.229z M289.241,220.172h2.156
			c1.114,0,1.672-0.616,1.672-1.848v-20.24c0-1.232-0.631-1.848-1.893-1.848h-1.979c-1.232,0-1.848,0.616-1.848,1.848v20.24
			C287.35,219.556,287.979,220.172,289.241,220.172z"/>
		<path d="M301.033,192.408h8.271c3.227,0,4.84,1.804,4.84,5.412v7.788c0,2.758-0.836,4.503-2.508,5.236L314.585,224h-4.004
			l-2.772-12.76h-2.552V224h-4.224V192.408z M305.257,207.632h2.771c1.262,0,1.893-0.762,1.893-2.288v-6.82
			c0-1.525-0.631-2.288-1.893-2.288h-2.771V207.632z"/>
		<path d="M317.665,224v-31.592h10.472v3.828h-6.248v9.592h5.544v3.828h-5.544v10.516h6.248V224H317.665z"/>
	</g>
	<g opacity="0.5">
		<path d="M163.65,330.624v1.473c0,2.603-1.227,3.903-3.68,3.903h-1.984c-2.454,0-3.68-1.301-3.68-3.903v-15.168
			c0-2.603,1.227-3.904,3.68-3.904h1.984c2.453,0,3.68,1.302,3.68,3.904v2.592h-3.072v-2.368c0-0.896-0.459-1.344-1.376-1.344
			h-0.608c-0.811,0-1.216,0.447-1.216,1.344v14.72c0,0.896,0.405,1.344,1.216,1.344h0.768c0.811,0,1.216-0.447,1.216-1.344v-1.248
			H163.65z"/>
		<path d="M176.034,313.024v18.624c0,2.901-1.237,4.352-3.712,4.352h-2.592c-2.454,0-3.68-1.461-3.68-4.384v-18.592h3.072v18.688
			c0,1.003,0.448,1.504,1.344,1.504h1.248c0.832,0,1.248-0.501,1.248-1.504v-18.688H176.034z"/>
		<path d="M178.914,313.024h6.016c2.347,0,3.52,1.312,3.52,3.936v5.664c0,2.006-0.608,3.275-1.824,3.809L188.77,336h-2.912
			l-2.016-9.279h-1.856V336h-3.072V313.024z M181.986,324.097h2.016c0.917,0,1.376-0.555,1.376-1.664v-4.96
			c0-1.109-0.459-1.664-1.376-1.664h-2.016V324.097z"/>
		<path d="M191.01,313.024h6.016c2.347,0,3.52,1.312,3.52,3.936v5.664c0,2.006-0.608,3.275-1.824,3.809l2.144,9.567h-2.912
			l-2.016-9.279h-1.856V336h-3.072V313.024z M194.082,324.097h2.016c0.917,0,1.376-0.555,1.376-1.664v-4.96
			c0-1.109-0.459-1.664-1.376-1.664h-2.016V324.097z"/>
		<path d="M203.105,336v-22.976h7.616v2.784h-4.544v6.976h4.032v2.784h-4.032v7.647h4.544V336H203.105z"/>
		<path d="M219.297,324.128v-11.104h3.072V336h-3.072v-4.576l-3.296-10.464V336h-3.072v-22.976h3.072L219.297,324.128z"/>
		<path d="M230.145,315.809V336h-3.072v-20.191h-2.944v-2.784h8.96v2.784H230.145z"/>
		<path d="M239.968,313.024h6.016c2.347,0,3.52,1.312,3.52,3.936v5.664c0,2.006-0.608,3.275-1.824,3.809l2.144,9.567h-2.912
			l-2.016-9.279h-1.856V336h-3.072V313.024z M243.041,324.097h2.016c0.917,0,1.376-0.555,1.376-1.664v-4.96
			c0-1.109-0.459-1.664-1.376-1.664h-2.016V324.097z"/>
		<path d="M255.616,336c-2.475,0-3.712-1.301-3.712-3.903V316.96c0-2.624,1.227-3.936,3.68-3.936h2.944
			c2.453,0,3.68,1.312,3.68,3.936v15.137c0,2.603-1.237,3.903-3.712,3.903H255.616z M256.352,333.216h1.568
			c0.811,0,1.216-0.447,1.216-1.344v-14.72c0-0.896-0.459-1.344-1.376-1.344h-1.44c-0.896,0-1.344,0.447-1.344,1.344v14.72
			C254.976,332.769,255.435,333.216,256.352,333.216z"/>
		<path d="M274.112,330.624v1.473c0,2.603-1.227,3.903-3.68,3.903h-1.984c-2.453,0-3.68-1.301-3.68-3.903v-15.168
			c0-2.603,1.227-3.904,3.68-3.904h1.984c2.453,0,3.68,1.302,3.68,3.904v2.592h-3.072v-2.368c0-0.896-0.459-1.344-1.376-1.344
			h-0.607c-0.812,0-1.217,0.447-1.217,1.344v14.72c0,0.896,0.405,1.344,1.217,1.344h0.768c0.811,0,1.216-0.447,1.216-1.344v-1.248
			H274.112z"/>
		<path d="M279.584,336h-3.071v-22.976h3.071V336z M286.656,336h-3.072l-3.84-11.231v-0.192l3.2-11.552h2.816l-3.232,11.424
			L286.656,336z"/>
		<path d="M303.487,313.024L299.775,336h-3.647l-3.712-22.976h3.04l2.496,17.536l2.495-17.536H303.487z"/>
		<path d="M307.84,336h-3.071v-19.04c0-2.624,1.227-3.936,3.68-3.936h2.304c2.453,0,3.681,1.312,3.681,3.936V336h-3.072v-8.416
			h-3.521V336z M311.36,324.8v-7.647c0-0.896-0.448-1.344-1.344-1.344h-0.832c-0.896,0-1.345,0.447-1.345,1.344v7.647H311.36z"/>
		<path d="M324.447,336h-7.296v-22.976h3.071v20.191h4.225V336z"/>
		<path d="M336.191,313.024v18.624c0,2.901-1.237,4.352-3.712,4.352h-2.592c-2.454,0-3.68-1.461-3.68-4.384v-18.592h3.071v18.688
			c0,1.003,0.448,1.504,1.345,1.504h1.247c0.832,0,1.248-0.501,1.248-1.504v-18.688H336.191z"/>
		<path d="M339.071,336v-22.976h7.615v2.784h-4.544v6.976h4.032v2.784h-4.032v7.647h4.544V336H339.071z"/>
		<path d="M354.783,319.2v-2.016c0-0.917-0.448-1.376-1.344-1.376h-0.48c-0.875,0-1.312,0.459-1.312,1.376v3.808
			c0,0.427,0.085,0.715,0.256,0.864c0.17,0.149,0.448,0.341,0.832,0.576l2.912,1.567c0.64,0.363,1.093,0.646,1.359,0.849
			c0.267,0.202,0.475,0.447,0.624,0.735s0.225,0.838,0.225,1.648v4.896c0,2.582-1.238,3.872-3.712,3.872h-1.889
			c-2.453,0-3.68-1.408-3.68-4.224v-1.152h3.072v1.248c0,0.896,0.458,1.344,1.376,1.344h0.544c0.811,0,1.216-0.447,1.216-1.344
			v-3.904c0-0.426-0.086-0.714-0.256-0.863c-0.171-0.149-0.448-0.341-0.832-0.576l-2.912-1.632c-0.64-0.341-1.104-0.629-1.393-0.864
			c-0.287-0.234-0.495-0.538-0.624-0.912c-0.128-0.373-0.191-0.858-0.191-1.456v-4.704c0-2.624,1.227-3.936,3.68-3.936h1.92
			c2.453,0,3.681,1.312,3.681,3.936v2.24H354.783z"/>
	</g>
	<g opacity="0.33">
		<path d="M219.031,359.188h5.617V360h-6.586v-11.375h0.969V359.188z"/>
		<path d="M231.609,360c-0.094-0.266-0.154-0.659-0.18-1.18c-0.328,0.427-0.746,0.757-1.254,0.988s-1.046,0.348-1.613,0.348
			c-0.812,0-1.47-0.227-1.973-0.68c-0.503-0.453-0.754-1.026-0.754-1.719c0-0.823,0.342-1.474,1.027-1.953
			c0.685-0.479,1.639-0.719,2.863-0.719h1.695v-0.961c0-0.604-0.187-1.079-0.559-1.426c-0.373-0.347-0.916-0.52-1.629-0.52
			c-0.651,0-1.19,0.167-1.617,0.5c-0.427,0.333-0.641,0.734-0.641,1.203l-0.938-0.008c0-0.672,0.312-1.254,0.938-1.746
			s1.393-0.738,2.305-0.738c0.942,0,1.686,0.235,2.23,0.707c0.544,0.472,0.824,1.129,0.84,1.973v4c0,0.817,0.086,1.43,0.258,1.836
			V360H231.609z M228.672,359.328c0.625,0,1.184-0.151,1.676-0.453s0.85-0.706,1.074-1.211v-1.859h-1.672
			c-0.933,0.011-1.662,0.181-2.188,0.512c-0.526,0.331-0.789,0.785-0.789,1.363c0,0.474,0.176,0.867,0.527,1.18
			S228.109,359.328,228.672,359.328z"/>
		<path d="M238.75,352.344c-0.198-0.036-0.409-0.055-0.633-0.055c-0.583,0-1.077,0.163-1.48,0.488
			c-0.404,0.325-0.691,0.798-0.863,1.418V360h-0.93v-8.453h0.914l0.016,1.344c0.495-1,1.289-1.5,2.383-1.5
			c0.26,0,0.466,0.034,0.617,0.102L238.75,352.344z"/>
		<path d="M239.703,355.695c0-1.323,0.293-2.371,0.879-3.145s1.381-1.16,2.387-1.16c1.151,0,2.026,0.458,2.625,1.375l0.047-1.219
			h0.875v8.281c0,1.089-0.305,1.95-0.914,2.586s-1.435,0.953-2.477,0.953c-0.589,0-1.15-0.132-1.684-0.395
			c-0.534-0.263-0.955-0.613-1.262-1.051l0.523-0.562c0.661,0.812,1.448,1.219,2.359,1.219c0.781,0,1.391-0.23,1.828-0.691
			s0.664-1.101,0.68-1.918v-1.062c-0.599,0.833-1.472,1.25-2.617,1.25c-0.979,0-1.766-0.391-2.359-1.172s-0.891-1.836-0.891-3.164
			V355.695z M240.648,355.859c0,1.078,0.216,1.929,0.648,2.551c0.432,0.622,1.042,0.934,1.828,0.934
			c1.151,0,1.966-0.516,2.445-1.547v-3.93c-0.219-0.542-0.534-0.954-0.945-1.238c-0.412-0.284-0.906-0.426-1.484-0.426
			c-0.787,0-1.398,0.309-1.836,0.926S240.648,354.656,240.648,355.859z"/>
		<path d="M252.227,360.156c-0.719,0-1.369-0.177-1.949-0.531c-0.581-0.354-1.033-0.848-1.355-1.48
			c-0.323-0.633-0.484-1.343-0.484-2.129v-0.336c0-0.812,0.157-1.544,0.473-2.195c0.315-0.651,0.754-1.163,1.316-1.535
			s1.172-0.559,1.828-0.559c1.026,0,1.84,0.351,2.441,1.051s0.902,1.657,0.902,2.871v0.523h-6.031v0.18
			c0,0.958,0.274,1.757,0.824,2.395c0.549,0.638,1.241,0.957,2.074,0.957c0.5,0,0.941-0.091,1.324-0.273s0.73-0.474,1.043-0.875
			l0.586,0.445C254.531,359.659,253.534,360.156,252.227,360.156z M252.055,352.188c-0.703,0-1.296,0.258-1.777,0.773
			c-0.482,0.516-0.775,1.208-0.879,2.078h5.07v-0.102c-0.026-0.812-0.258-1.474-0.695-1.984S252.763,352.188,252.055,352.188z"/>
		<path d="M201.156,372.625l4.195,10.039l4.211-10.039h1.281V384h-0.961v-4.953l0.078-5.078L205.727,384h-0.742l-4.219-9.992
			l0.078,5.008V384h-0.961v-11.375H201.156z"/>
		<path d="M216.781,384.156c-0.719,0-1.369-0.177-1.949-0.531c-0.581-0.354-1.033-0.848-1.355-1.48
			c-0.323-0.633-0.484-1.343-0.484-2.129v-0.336c0-0.812,0.157-1.544,0.473-2.195c0.315-0.651,0.754-1.163,1.316-1.535
			s1.172-0.559,1.828-0.559c1.026,0,1.84,0.351,2.441,1.051s0.902,1.657,0.902,2.871v0.523h-6.031v0.18
			c0,0.958,0.274,1.757,0.824,2.395c0.549,0.638,1.241,0.957,2.074,0.957c0.5,0,0.941-0.091,1.324-0.273s0.73-0.474,1.043-0.875
			l0.586,0.445C219.086,383.659,218.088,384.156,216.781,384.156z M216.609,376.188c-0.703,0-1.296,0.258-1.777,0.773
			c-0.482,0.516-0.775,1.208-0.879,2.078h5.07v-0.102c-0.026-0.812-0.258-1.474-0.695-1.984S217.317,376.188,216.609,376.188z"/>
		<path d="M221.398,379.695c0-1.312,0.293-2.358,0.879-3.137s1.381-1.168,2.387-1.168c1.141,0,2.01,0.45,2.609,1.352V372h0.93v12
			h-0.875l-0.039-1.125c-0.599,0.854-1.479,1.281-2.641,1.281c-0.974,0-1.759-0.392-2.355-1.176
			c-0.597-0.784-0.895-1.843-0.895-3.176V379.695z M222.344,379.859c0,1.078,0.216,1.929,0.648,2.551
			c0.432,0.622,1.042,0.934,1.828,0.934c1.151,0,1.969-0.508,2.453-1.523v-3.969c-0.484-1.099-1.297-1.648-2.438-1.648
			c-0.787,0-1.398,0.309-1.836,0.926S222.344,378.656,222.344,379.859z"/>
		<path d="M230.609,373.105c0-0.176,0.057-0.325,0.172-0.446c0.114-0.122,0.271-0.183,0.469-0.183c0.198,0,0.355,0.061,0.473,0.183
			c0.117,0.121,0.176,0.271,0.176,0.446s-0.059,0.323-0.176,0.442s-0.275,0.179-0.473,0.179c-0.198,0-0.354-0.06-0.469-0.179
			C230.667,373.429,230.609,373.281,230.609,373.105z M231.711,384h-0.938v-8.453h0.938V384z"/>
		<path d="M239.688,382.93c-0.562,0.817-1.461,1.227-2.695,1.227c-0.901,0-1.586-0.262-2.055-0.785s-0.708-1.298-0.719-2.324v-5.5
			h0.93v5.383c0,1.609,0.651,2.414,1.953,2.414c1.354,0,2.211-0.56,2.57-1.68v-6.117h0.938V384h-0.906L239.688,382.93z"/>
		<path d="M243.891,375.547l0.031,1.375c0.312-0.511,0.703-0.894,1.172-1.148s0.989-0.383,1.562-0.383
			c1.333,0,2.18,0.547,2.539,1.641c0.302-0.526,0.706-0.931,1.211-1.215c0.505-0.284,1.062-0.426,1.672-0.426
			c1.812,0,2.737,0.989,2.773,2.969V384h-0.938v-5.57c-0.005-0.755-0.168-1.315-0.488-1.68s-0.843-0.547-1.566-0.547
			c-0.672,0.011-1.24,0.228-1.703,0.652c-0.464,0.425-0.722,0.941-0.773,1.551V384h-0.938v-5.641
			c-0.005-0.724-0.176-1.265-0.512-1.621s-0.853-0.535-1.551-0.535c-0.589,0-1.094,0.168-1.516,0.504s-0.734,0.835-0.938,1.496V384
			h-0.938v-8.453H243.891z"/>
		<path d="M224.477,405.203c0-0.63-0.222-1.129-0.664-1.496c-0.443-0.367-1.253-0.716-2.43-1.047
			c-1.177-0.331-2.037-0.691-2.578-1.082c-0.771-0.552-1.156-1.276-1.156-2.172c0-0.87,0.358-1.577,1.074-2.121
			c0.716-0.544,1.631-0.816,2.746-0.816c0.755,0,1.431,0.146,2.027,0.438c0.596,0.292,1.059,0.698,1.387,1.219
			s0.492,1.102,0.492,1.742h-0.969c0-0.778-0.266-1.404-0.797-1.877s-1.245-0.709-2.141-0.709c-0.87,0-1.562,0.194-2.078,0.583
			s-0.773,0.896-0.773,1.521c0,0.579,0.231,1.052,0.695,1.417c0.463,0.365,1.206,0.688,2.227,0.966
			c1.021,0.279,1.794,0.568,2.32,0.868c0.526,0.3,0.922,0.657,1.188,1.074s0.398,0.909,0.398,1.477c0,0.896-0.358,1.614-1.074,2.156
			c-0.716,0.542-1.66,0.812-2.832,0.812c-0.802,0-1.538-0.144-2.207-0.43c-0.669-0.286-1.177-0.688-1.523-1.203
			c-0.347-0.516-0.52-1.106-0.52-1.773h0.961c0,0.802,0.299,1.435,0.898,1.898c0.599,0.464,1.396,0.695,2.391,0.695
			c0.885,0,1.596-0.195,2.133-0.586C224.208,406.367,224.477,405.849,224.477,405.203z"/>
		<path d="M228.148,399.547l0.031,1.375c0.312-0.511,0.703-0.894,1.172-1.148s0.989-0.383,1.562-0.383
			c1.333,0,2.18,0.547,2.539,1.641c0.302-0.526,0.706-0.931,1.211-1.215c0.505-0.284,1.062-0.426,1.672-0.426
			c1.812,0,2.737,0.989,2.773,2.969V408h-0.938v-5.57c-0.005-0.755-0.168-1.315-0.488-1.68s-0.843-0.547-1.566-0.547
			c-0.672,0.011-1.24,0.228-1.703,0.652c-0.464,0.425-0.722,0.941-0.773,1.551V408h-0.938v-5.641
			c-0.005-0.724-0.176-1.265-0.512-1.621s-0.853-0.535-1.551-0.535c-0.589,0-1.094,0.168-1.516,0.504s-0.734,0.835-0.938,1.496V408
			h-0.938v-8.453H228.148z"/>
		<path d="M246.812,408c-0.094-0.266-0.154-0.659-0.18-1.18c-0.328,0.427-0.746,0.757-1.254,0.988s-1.046,0.348-1.613,0.348
			c-0.812,0-1.47-0.227-1.973-0.68c-0.503-0.453-0.754-1.026-0.754-1.719c0-0.823,0.342-1.474,1.027-1.953
			c0.685-0.479,1.639-0.719,2.863-0.719h1.695v-0.961c0-0.604-0.187-1.079-0.559-1.426c-0.373-0.347-0.916-0.52-1.629-0.52
			c-0.651,0-1.19,0.167-1.617,0.5c-0.427,0.333-0.641,0.734-0.641,1.203l-0.938-0.008c0-0.672,0.312-1.254,0.938-1.746
			s1.393-0.738,2.305-0.738c0.942,0,1.686,0.235,2.23,0.707c0.544,0.472,0.824,1.129,0.84,1.973v4c0,0.817,0.086,1.43,0.258,1.836
			V408H246.812z M243.875,407.328c0.625,0,1.184-0.151,1.676-0.453s0.85-0.706,1.074-1.211v-1.859h-1.672
			c-0.933,0.011-1.662,0.181-2.188,0.512c-0.526,0.331-0.789,0.785-0.789,1.363c0,0.474,0.176,0.867,0.527,1.18
			S243.312,407.328,243.875,407.328z"/>
		<path d="M251.094,408h-0.938v-12h0.938V408z"/>
		<path d="M254.68,408h-0.938v-12h0.938V408z"/>
	</g>
</svg>