<?xml version="1.0" encoding="utf-8"?>
<!DOCTYPE svg PUBLIC "-//W3C//DTD SVG 1.1//EN" "http://www.w3.org/Graphics/SVG/1.1/DTD/svg11.dtd">
<svg version="1.1" xmlns="http://www.w3.org/2000/svg" xmlns:xlink="http://www.w3.org/1999/xlink" x="0px" y="0px"
	 viewBox="0 0 512 512" enable-background="new 0 0 512 512" xml:space="preserve"  width="512" height="512">
	<g display="inline">
		<path d="M171.918,112h-4.224v-11.616l-5.192-19.976h4.18l3.168,13.728h0.132l2.86-13.728h4.18l-5.104,19.976V112z"/>
		<path d="M183.886,112c-3.403,0-5.104-1.789-5.104-5.368V85.82c0-3.608,1.687-5.412,5.06-5.412h4.048
			c3.373,0,5.06,1.804,5.06,5.412v20.812c0,3.579-1.702,5.368-5.104,5.368H183.886z M184.898,108.172h2.156
			c1.114,0,1.672-0.616,1.672-1.848v-20.24c0-1.232-0.631-1.848-1.892-1.848h-1.98c-1.232,0-1.848,0.616-1.848,1.848v20.24
			C183.006,107.556,183.636,108.172,184.898,108.172z"/>
		<path d="M210.417,80.408v25.608c0,3.989-1.702,5.984-5.104,5.984h-3.564c-3.374,0-5.06-2.009-5.06-6.028V80.408h4.224v25.696
			c0,1.379,0.616,2.068,1.848,2.068h1.716c1.144,0,1.716-0.689,1.716-2.068V80.408H210.417z"/>
		<path d="M214.377,80.408h8.272c3.227,0,4.84,1.804,4.84,5.412v7.788c0,2.758-0.836,4.503-2.508,5.236L227.929,112h-4.004
			l-2.772-12.76h-2.552V112h-4.224V80.408z M218.601,95.632h2.772c1.261,0,1.892-0.762,1.892-2.288v-6.82
			c0-1.525-0.631-2.288-1.892-2.288h-2.772V95.632z"/>
		<path d="M238.048,80.408h7.7c3.402,0,5.104,1.804,5.104,5.412v9.372c0,3.579-1.688,5.368-5.06,5.368h-3.52V112h-4.224V80.408z
			 M242.272,96.732h2.684c1.114,0,1.672-0.616,1.672-1.848v-8.8c0-1.232-0.631-1.848-1.892-1.848h-2.464V96.732z"/>
		<path d="M259.08,112c-3.403,0-5.104-1.789-5.104-5.368V85.82c0-3.608,1.687-5.412,5.061-5.412h4.048
			c3.373,0,5.06,1.804,5.06,5.412v20.812c0,3.579-1.701,5.368-5.104,5.368H259.08z M260.092,108.172h2.156
			c1.114,0,1.672-0.616,1.672-1.848v-20.24c0-1.232-0.631-1.848-1.893-1.848h-1.979c-1.232,0-1.848,0.616-1.848,1.848v20.24
			C258.2,107.556,258.83,108.172,260.092,108.172z"/>
		<path d="M279.98,88.9v-2.772c0-1.261-0.616-1.892-1.849-1.892h-0.659c-1.203,0-1.805,0.631-1.805,1.892v5.236
			c0,0.587,0.117,0.983,0.353,1.188c0.234,0.206,0.616,0.47,1.144,0.792l4.004,2.156c0.88,0.499,1.503,0.888,1.87,1.166
			c0.366,0.279,0.652,0.616,0.858,1.012c0.205,0.396,0.308,1.151,0.308,2.266v6.732c0,3.55-1.701,5.324-5.104,5.324h-2.597
			c-3.373,0-5.06-1.936-5.06-5.808v-1.584h4.224v1.716c0,1.232,0.631,1.848,1.893,1.848h0.748c1.114,0,1.672-0.616,1.672-1.848
			v-5.368c0-0.586-0.118-0.982-0.353-1.188c-0.234-0.205-0.615-0.469-1.144-0.792l-4.004-2.244c-0.88-0.469-1.519-0.865-1.914-1.188
			c-0.396-0.322-0.682-0.74-0.858-1.254c-0.176-0.513-0.264-1.181-0.264-2.002V85.82c0-3.608,1.687-5.412,5.06-5.412h2.641
			c3.373,0,5.06,1.804,5.06,5.412v3.08H279.98z"/>
		<path d="M287.725,112V80.408h4.224V112H287.725z"/>
		<path d="M302.64,84.236V112h-4.224V84.236h-4.048v-3.828h12.319v3.828H302.64z"/>
		<path d="M309.107,112V80.408h4.224V112H309.107z"/>
		<path d="M322.175,112c-3.403,0-5.104-1.789-5.104-5.368V85.82c0-3.608,1.687-5.412,5.061-5.412h4.048
			c3.373,0,5.06,1.804,5.06,5.412v20.812c0,3.579-1.701,5.368-5.104,5.368H322.175z M323.187,108.172h2.156
			c1.114,0,1.672-0.616,1.672-1.848v-20.24c0-1.232-0.631-1.848-1.893-1.848h-1.979c-1.232,0-1.848,0.616-1.848,1.848v20.24
			C321.295,107.556,321.925,108.172,323.187,108.172z"/>
		<path d="M343.734,95.676V80.408h4.224V112h-4.224v-6.292l-4.532-14.388V112h-4.224V80.408h4.224L343.734,95.676z"/>
		<path opacity="0.33" d="M184.546,136v-15.796h2.112V136H184.546z"/>
		<path opacity="0.33" d="M193.016,127.838v-7.634h2.112V136h-2.112v-3.146l-2.266-7.194V136h-2.112v-15.796h2.112L193.016,127.838z
			"/>
		<path opacity="0.33" d="M204.917,129.488l1.958-9.284h2.332V136h-2.112l0.22-10.34l-1.584,7.48h-1.628l-1.584-7.48l0.22,10.34
			h-2.112v-15.796h2.332L204.917,129.488z"/>
		<path opacity="0.33" d="M211.188,136v-15.796h5.236v1.914h-3.124v4.796h2.772v1.914h-2.772v5.258h3.124V136H211.188z"/>
		<path opacity="0.33" d="M221.307,122.118V136h-2.112v-13.882h-2.024v-1.914h6.16v1.914H221.307z"/>
		<path opacity="0.33" d="M224.541,136v-15.796h5.236v1.914h-3.124v4.796h2.772v1.914h-2.772v5.258h3.124V136H224.541z"/>
		<path opacity="0.33" d="M231.295,120.204h4.136c1.613,0,2.42,0.902,2.42,2.706v3.894c0,1.378-0.418,2.251-1.254,2.618l1.474,6.578
			h-2.002l-1.386-6.38h-1.276V136h-2.112V120.204z M233.407,127.816h1.386c0.631,0,0.946-0.381,0.946-1.144v-3.41
			c0-0.763-0.315-1.144-0.946-1.144h-1.386V127.816z"/>
		<path opacity="0.33" d="M243.659,124.45v-1.386c0-0.63-0.308-0.946-0.924-0.946h-0.33c-0.602,0-0.902,0.315-0.902,0.946v2.618
			c0,0.293,0.059,0.491,0.176,0.594c0.117,0.103,0.308,0.235,0.572,0.396l2.002,1.078c0.44,0.25,0.751,0.444,0.935,0.583
			c0.183,0.14,0.326,0.308,0.429,0.506c0.103,0.198,0.154,0.576,0.154,1.133v3.366c0,1.775-0.851,2.662-2.552,2.662h-1.298
			c-1.687,0-2.53-0.968-2.53-2.904v-0.792h2.112v0.858c0,0.616,0.315,0.924,0.946,0.924h0.374c0.557,0,0.836-0.308,0.836-0.924
			v-2.684c0-0.293-0.059-0.491-0.176-0.594c-0.117-0.102-0.308-0.234-0.572-0.396l-2.002-1.122c-0.44-0.235-0.759-0.433-0.957-0.594
			c-0.198-0.161-0.341-0.37-0.429-0.627c-0.088-0.256-0.132-0.59-0.132-1.001v-3.234c0-1.804,0.843-2.706,2.53-2.706h1.32
			c1.687,0,2.53,0.902,2.53,2.706v1.54H243.659z"/>
		<path opacity="0.33" d="M247.002,138.618l1.012-2.618h-1.034v-2.728h2.354V136l-1.056,2.618H247.002z"/>
		<path opacity="0.33" d="M259.41,127.882c1.158,0.323,1.737,0.924,1.737,1.804v3.96c0,1.569-0.8,2.354-2.397,2.354h-4.246v-15.796
			h3.607c1.878,0,2.816,0.954,2.816,2.86v3.036c0,0.91-0.506,1.467-1.518,1.672V127.882z M256.616,126.87h0.99
			c0.807,0,1.21-0.381,1.21-1.144v-2.464c0-0.763-0.315-1.144-0.945-1.144h-1.254V126.87z M256.616,134.086h1.583
			c0.558,0,0.837-0.227,0.837-0.682v-3.498c0-0.748-0.419-1.122-1.255-1.122h-1.166V134.086z"/>
		<path opacity="0.33" d="M262.907,136v-15.796h5.235v1.914h-3.124v4.796h2.772v1.914h-2.772v5.258h3.124V136H262.907z"/>
		<path opacity="0.33" d="M275.975,132.304v1.012c0,1.79-0.844,2.684-2.529,2.684h-1.364c-1.687,0-2.53-0.895-2.53-2.684v-10.428
			c0-1.79,0.844-2.684,2.53-2.684h1.364c1.686,0,2.529,0.895,2.529,2.684v1.782h-2.111v-1.628c0-0.616-0.316-0.924-0.946-0.924
			h-0.418c-0.558,0-0.836,0.308-0.836,0.924v10.12c0,0.616,0.278,0.924,0.836,0.924h0.528c0.557,0,0.836-0.308,0.836-0.924v-0.858
			H275.975z"/>
		<path opacity="0.33" d="M279.627,136h-2.112v-13.09c0-1.804,0.844-2.706,2.53-2.706h1.584c1.687,0,2.53,0.902,2.53,2.706V136
			h-2.112v-5.786h-2.42V136z M282.047,128.3v-5.258c0-0.616-0.309-0.924-0.924-0.924h-0.572c-0.616,0-0.924,0.308-0.924,0.924v5.258
			H282.047z"/>
		<path opacity="0.33" d="M292.892,120.204v12.804c0,1.995-0.851,2.992-2.552,2.992h-1.782c-1.687,0-2.529-1.004-2.529-3.014
			v-12.782h2.111v12.848c0,0.69,0.309,1.034,0.925,1.034h0.857c0.572,0,0.858-0.344,0.858-1.034v-12.848H292.892z"/>
		<path opacity="0.33" d="M298.92,124.45v-1.386c0-0.63-0.308-0.946-0.924-0.946h-0.33c-0.602,0-0.902,0.315-0.902,0.946v2.618
			c0,0.293,0.059,0.491,0.176,0.594c0.117,0.103,0.309,0.235,0.572,0.396l2.002,1.078c0.44,0.25,0.752,0.444,0.936,0.583
			c0.183,0.14,0.326,0.308,0.429,0.506c0.103,0.198,0.154,0.576,0.154,1.133v3.366c0,1.775-0.852,2.662-2.553,2.662h-1.298
			c-1.687,0-2.53-0.968-2.53-2.904v-0.792h2.112v0.858c0,0.616,0.315,0.924,0.946,0.924h0.374c0.557,0,0.836-0.308,0.836-0.924
			v-2.684c0-0.293-0.059-0.491-0.176-0.594c-0.118-0.102-0.309-0.234-0.572-0.396l-2.002-1.122c-0.44-0.235-0.759-0.433-0.957-0.594
			c-0.198-0.161-0.341-0.37-0.429-0.627c-0.088-0.256-0.133-0.59-0.133-1.001v-3.234c0-1.804,0.844-2.706,2.53-2.706h1.32
			c1.687,0,2.53,0.902,2.53,2.706v1.54H298.92z"/>
		<path opacity="0.33" d="M302.792,136v-15.796h5.235v1.914h-3.124v4.796h2.772v1.914h-2.772v5.258h3.124V136H302.792z"/>
		<path opacity="0.33" d="M319.907,120.204L317.355,136h-2.508l-2.553-15.796h2.09l1.717,12.056l1.716-12.056H319.907z"/>
		<path opacity="0.33" d="M321.117,120.204h4.136c1.613,0,2.42,0.902,2.42,2.706v3.894c0,1.378-0.418,2.251-1.254,2.618l1.474,6.578
			h-2.002l-1.386-6.38h-1.276V136h-2.111V120.204z M323.229,127.816h1.387c0.63,0,0.945-0.381,0.945-1.144v-3.41
			c0-0.763-0.315-1.144-0.945-1.144h-1.387V127.816z"/>
	</g>
	<g display="inline">
		<g>
			<path opacity="0.5" d="M222.408,168h-1.488l-0.864-4.368h-0.032l-1.04,4.368h-1.424l1.456-5.808l-1.36-5.68h1.504l0.864,4.24
				h0.032l0.96-4.24h1.424l-1.376,5.68L222.408,168z"/>
			<path opacity="0.5" d="M220.784,192h-1.536v-4.224l-1.888-7.264h1.52l1.152,4.992h0.048l1.04-4.992h1.52l-1.856,7.264V192z"/>
			<path opacity="0.5" d="M219.592,214.608h2.592V216h-4.256l-0.112-0.544l2.416-9.536h-2.16v-1.408h3.472l0.32,0.656
				L219.592,214.608z"/>
		</g>
	</g>
	<g display="inline">
		<g>
			<path opacity="0.5" d="M222.408,376h-1.488l-0.864-4.368h-0.032l-1.04,4.368h-1.424l1.456-5.809l-1.36-5.68h1.504l0.864,4.24
				h0.032l0.96-4.24h1.424l-1.376,5.68L222.408,376z"/>
			<path opacity="0.5" d="M220.784,400h-1.536v-4.225l-1.888-7.264h1.52l1.152,4.992h0.048l1.04-4.992h1.52l-1.856,7.264V400z"/>
			<path opacity="0.5" d="M219.592,422.607h2.592V424h-4.256l-0.112-0.544l2.416-9.536h-2.16v-1.408h3.472l0.32,0.656
				L219.592,422.607z"/>
		</g>
	</g>
	<g display="inline">
		<path d="M172.842,320h-4.224v-11.616l-5.192-19.976h4.18l3.168,13.729h0.132l2.86-13.729h4.18l-5.104,19.976V320z"/>
		<path d="M184.81,320c-3.403,0-5.104-1.789-5.104-5.368V293.82c0-3.608,1.687-5.412,5.06-5.412h4.048
			c3.373,0,5.06,1.804,5.06,5.412v20.812c0,3.579-1.702,5.368-5.104,5.368H184.81z M185.822,316.172h2.156
			c1.114,0,1.672-0.615,1.672-1.848v-20.24c0-1.232-0.631-1.848-1.892-1.848h-1.98c-1.232,0-1.848,0.615-1.848,1.848v20.24
			C183.93,315.557,184.56,316.172,185.822,316.172z"/>
		<path d="M211.341,288.408v25.607c0,3.99-1.702,5.984-5.104,5.984h-3.564c-3.374,0-5.06-2.009-5.06-6.027v-25.564h4.224v25.695
			c0,1.379,0.616,2.068,1.848,2.068h1.716c1.144,0,1.716-0.689,1.716-2.068v-25.695H211.341z"/>
		<path d="M215.301,288.408h8.272c3.227,0,4.84,1.804,4.84,5.412v7.787c0,2.758-0.836,4.504-2.508,5.236L228.853,320h-4.004
			l-2.772-12.76h-2.552V320h-4.224V288.408z M219.525,303.632h2.772c1.261,0,1.892-0.763,1.892-2.288v-6.82
			c0-1.524-0.631-2.287-1.892-2.287h-2.772V303.632z"/>
		<path d="M252.656,288.408L247.552,320h-5.016l-5.104-31.592h4.18l3.432,24.111l3.432-24.111H252.656z"/>
		<path d="M254.637,320v-31.592h10.473v3.828h-6.248v9.592h5.543v3.828h-5.543v10.516h6.248V320H254.637z"/>
		<path d="M278.176,320h-10.031v-31.592h4.224v27.764h5.808V320z"/>
		<path d="M285.479,320c-3.403,0-5.104-1.789-5.104-5.368V293.82c0-3.608,1.687-5.412,5.061-5.412h4.048
			c3.373,0,5.06,1.804,5.06,5.412v20.812c0,3.579-1.701,5.368-5.104,5.368H285.479z M286.491,316.172h2.156
			c1.114,0,1.672-0.615,1.672-1.848v-20.24c0-1.232-0.631-1.848-1.893-1.848h-1.979c-1.232,0-1.848,0.615-1.848,1.848v20.24
			C284.6,315.557,285.229,316.172,286.491,316.172z"/>
		<path d="M310.911,312.607v2.024c0,3.579-1.688,5.368-5.061,5.368h-2.728c-3.374,0-5.061-1.789-5.061-5.368v-20.856
			c0-3.578,1.687-5.367,5.061-5.367h2.728c3.373,0,5.061,1.789,5.061,5.367v3.564h-4.225v-3.256c0-1.232-0.631-1.848-1.892-1.848
			h-0.836c-1.115,0-1.672,0.615-1.672,1.848v20.24c0,1.232,0.557,1.848,1.672,1.848h1.056c1.114,0,1.672-0.615,1.672-1.848v-1.717
			H310.911z"/>
		<path d="M314.211,320v-31.592h4.224V320H314.211z"/>
		<path d="M329.126,292.236V320h-4.224v-27.764h-4.048v-3.828h12.319v3.828H329.126z"/>
		<path d="M343.47,320h-4.225v-11.616l-5.191-19.976h4.18l3.168,13.729h0.132l2.86-13.729h4.18l-5.104,19.976V320z"/>
		<path opacity="0.33" d="M186.174,344v-15.796h2.112V344H186.174z"/>
		<path opacity="0.33" d="M194.644,335.838v-7.634h2.112V344h-2.112v-3.146l-2.266-7.193V344h-2.112v-15.796h2.112L194.644,335.838z
			"/>
		<path opacity="0.33" d="M206.545,337.488l1.958-9.284h2.332V344h-2.112l0.22-10.34l-1.584,7.48h-1.628l-1.584-7.48l0.22,10.34
			h-2.112v-15.796h2.332L206.545,337.488z"/>
		<path opacity="0.33" d="M212.815,344v-15.796h5.236v1.914h-3.124v4.796h2.772v1.914h-2.772v5.258h3.124V344H212.815z"/>
		<path opacity="0.33" d="M222.935,330.118V344h-2.112v-13.882h-2.024v-1.914h6.16v1.914H222.935z"/>
		<path opacity="0.33" d="M226.169,344v-15.796h5.236v1.914h-3.124v4.796h2.772v1.914h-2.772v5.258h3.124V344H226.169z"/>
		<path opacity="0.33" d="M232.923,328.204h4.136c1.613,0,2.42,0.901,2.42,2.706v3.895c0,1.378-0.418,2.251-1.254,2.617l1.474,6.578
			h-2.002l-1.386-6.38h-1.276V344h-2.112V328.204z M235.035,335.816h1.386c0.631,0,0.946-0.382,0.946-1.145v-3.41
			c0-0.762-0.315-1.144-0.946-1.144h-1.386V335.816z"/>
		<path opacity="0.33" d="M245.287,332.45v-1.386c0-0.631-0.308-0.946-0.924-0.946h-0.33c-0.602,0-0.902,0.315-0.902,0.946v2.617
			c0,0.294,0.059,0.492,0.176,0.594c0.117,0.104,0.308,0.235,0.572,0.396l2.002,1.078c0.44,0.25,0.751,0.443,0.935,0.583
			c0.183,0.14,0.326,0.308,0.429,0.506c0.103,0.198,0.154,0.575,0.154,1.134v3.365c0,1.775-0.851,2.662-2.552,2.662h-1.298
			c-1.687,0-2.53-0.968-2.53-2.904v-0.791h2.112v0.857c0,0.615,0.315,0.924,0.946,0.924h0.374c0.557,0,0.836-0.309,0.836-0.924
			v-2.684c0-0.294-0.059-0.492-0.176-0.595s-0.308-0.234-0.572-0.396l-2.002-1.122c-0.44-0.235-0.759-0.433-0.957-0.595
			c-0.198-0.16-0.341-0.369-0.429-0.627c-0.088-0.256-0.132-0.59-0.132-1v-3.234c0-1.805,0.843-2.706,2.53-2.706h1.32
			c1.687,0,2.53,0.901,2.53,2.706v1.54H245.287z"/>
		<path opacity="0.33" d="M252.678,328.204h3.85c1.701,0,2.552,0.901,2.552,2.706v4.686c0,1.79-0.843,2.684-2.53,2.684h-1.76V344
			h-2.112V328.204z M254.79,336.366h1.342c0.557,0,0.836-0.308,0.836-0.925v-4.399c0-0.616-0.315-0.924-0.946-0.924h-1.232V336.366z
			"/>
		<path opacity="0.33" d="M260.752,344v-15.796h5.235v1.914h-3.124v4.796h2.772v1.914h-2.772v5.258h3.124V344H260.752z"/>
		<path opacity="0.33" d="M267.506,328.204h4.136c1.613,0,2.42,0.901,2.42,2.706v3.895c0,1.378-0.418,2.251-1.254,2.617l1.474,6.578
			h-2.002l-1.386-6.38h-1.276V344h-2.111V328.204z M269.617,335.816h1.387c0.63,0,0.945-0.382,0.945-1.145v-3.41
			c0-0.762-0.315-1.144-0.945-1.144h-1.387V335.816z"/>
		<path opacity="0.33" d="M283.389,332.45v-1.386c0-0.631-0.308-0.946-0.924-0.946h-0.33c-0.602,0-0.902,0.315-0.902,0.946v2.617
			c0,0.294,0.059,0.492,0.176,0.594c0.117,0.104,0.309,0.235,0.572,0.396l2.002,1.078c0.44,0.25,0.752,0.443,0.936,0.583
			c0.183,0.14,0.326,0.308,0.429,0.506s0.154,0.575,0.154,1.134v3.365c0,1.775-0.852,2.662-2.553,2.662h-1.298
			c-1.687,0-2.53-0.968-2.53-2.904v-0.791h2.112v0.857c0,0.615,0.315,0.924,0.946,0.924h0.374c0.557,0,0.836-0.309,0.836-0.924
			v-2.684c0-0.294-0.059-0.492-0.176-0.595c-0.118-0.103-0.309-0.234-0.572-0.396l-2.002-1.122c-0.44-0.235-0.759-0.433-0.957-0.595
			c-0.198-0.16-0.341-0.369-0.429-0.627c-0.088-0.256-0.133-0.59-0.133-1v-3.234c0-1.805,0.844-2.706,2.53-2.706h1.32
			c1.687,0,2.53,0.901,2.53,2.706v1.54H283.389z"/>
		<path opacity="0.33" d="M287.261,344v-15.796h5.235v1.914h-3.124v4.796h2.772v1.914h-2.772v5.258h3.124V344H287.261z"/>
		<path opacity="0.33" d="M300.328,340.305v1.012c0,1.789-0.844,2.684-2.529,2.684h-1.364c-1.687,0-2.53-0.895-2.53-2.684v-10.428
			c0-1.79,0.844-2.685,2.53-2.685h1.364c1.686,0,2.529,0.895,2.529,2.685v1.781h-2.111v-1.628c0-0.616-0.316-0.924-0.946-0.924
			h-0.418c-0.558,0-0.836,0.308-0.836,0.924v10.12c0,0.615,0.278,0.924,0.836,0.924h0.528c0.557,0,0.836-0.309,0.836-0.924v-0.857
			H300.328z"/>
		<path opacity="0.33" d="M304.42,344c-1.701,0-2.552-0.895-2.552-2.684V330.91c0-1.805,0.844-2.706,2.53-2.706h2.023
			c1.687,0,2.53,0.901,2.53,2.706v10.406c0,1.789-0.851,2.684-2.552,2.684H304.42z M304.927,342.086h1.077
			c0.558,0,0.836-0.309,0.836-0.924v-10.12c0-0.616-0.315-0.924-0.945-0.924h-0.99c-0.616,0-0.924,0.308-0.924,0.924v10.12
			C303.98,341.777,304.296,342.086,304.927,342.086z"/>
		<path opacity="0.33" d="M315.2,335.838v-7.634h2.112V344H315.2v-3.146l-2.267-7.193V344h-2.111v-15.796h2.111L315.2,335.838z"/>
		<path opacity="0.33" d="M319.292,344v-15.796h3.674c1.979,0,2.97,1.012,2.97,3.036v10.472c0,1.526-0.844,2.288-2.53,2.288H319.292
			z M321.403,342.086h1.584c0.558,0,0.837-0.234,0.837-0.704v-10.12c0-0.762-0.316-1.144-0.946-1.144h-1.475V342.086z"/>
	</g>
</svg>