<?xml version="1.0" encoding="utf-8"?>
<!DOCTYPE svg PUBLIC "-//W3C//DTD SVG 1.1//EN" "http://www.w3.org/Graphics/SVG/1.1/DTD/svg11.dtd">
<svg version="1.1" xmlns="http://www.w3.org/2000/svg" xmlns:xlink="http://www.w3.org/1999/xlink" x="0px" y="0px"
	 viewBox="0 0 512 512" enable-background="new 0 0 512 512" xml:space="preserve"  width="512" height="512">
	<g display="inline">
		<path d="M130.076,64.408h7.7c3.402,0,5.104,1.804,5.104,5.412v9.372c0,3.579-1.688,5.368-5.06,5.368h-3.52V96h-4.224V64.408z
			 M134.3,80.732h2.684c1.114,0,1.672-0.616,1.672-1.848v-8.8c0-1.232-0.631-1.848-1.892-1.848H134.3V80.732z"/>
		<path d="M155.639,96V81.656h-5.192V96h-4.224V64.408h4.224v13.42h5.192v-13.42h4.224V96H155.639z"/>
		<path d="M168.707,96c-3.403,0-5.104-1.789-5.104-5.368V69.82c0-3.608,1.687-5.412,5.06-5.412h4.048c3.373,0,5.06,1.804,5.06,5.412
			v20.812c0,3.579-1.702,5.368-5.104,5.368H168.707z M169.719,92.172h2.156c1.114,0,1.672-0.616,1.672-1.848v-20.24
			c0-1.232-0.631-1.848-1.892-1.848h-1.98c-1.232,0-1.848,0.616-1.848,1.848v20.24C167.827,91.556,168.457,92.172,169.719,92.172z"
			/>
		<path d="M188.242,68.236V96h-4.224V68.236h-4.048v-3.828h12.32v3.828H188.242z"/>
		<path d="M199.593,96c-3.403,0-5.104-1.789-5.104-5.368V69.82c0-3.608,1.687-5.412,5.06-5.412h4.048c3.373,0,5.06,1.804,5.06,5.412
			v20.812c0,3.579-1.702,5.368-5.104,5.368H199.593z M200.605,92.172h2.156c1.114,0,1.672-0.616,1.672-1.848v-20.24
			c0-1.232-0.631-1.848-1.892-1.848h-1.98c-1.232,0-1.848,0.616-1.848,1.848v20.24C198.713,91.556,199.344,92.172,200.605,92.172z"
			/>
		<path d="M221.153,79.676V64.408h4.224V96h-4.224v-6.292l-4.532-14.388V96h-4.224V64.408h4.224L221.153,79.676z"/>
		<path d="M246.188,79.764c2.317,0.646,3.476,1.848,3.476,3.608v7.92c0,3.139-1.599,4.708-4.796,4.708h-8.492V64.408h7.216
			c3.754,0,5.632,1.907,5.632,5.72V76.2c0,1.819-1.012,2.934-3.036,3.344V79.764z M240.601,77.74h1.98
			c1.613,0,2.42-0.763,2.42-2.288v-4.928c0-1.525-0.631-2.288-1.892-2.288h-2.508V77.74z M240.601,92.172h3.168
			c1.114,0,1.672-0.454,1.672-1.364v-6.996c0-1.496-0.836-2.244-2.508-2.244h-2.332V92.172z"/>
		<path d="M258.068,96c-3.403,0-5.104-1.789-5.104-5.368V69.82c0-3.608,1.687-5.412,5.061-5.412h4.048
			c3.373,0,5.06,1.804,5.06,5.412v20.812c0,3.579-1.701,5.368-5.104,5.368H258.068z M259.08,92.172h2.156
			c1.114,0,1.672-0.616,1.672-1.848v-20.24c0-1.232-0.631-1.848-1.893-1.848h-1.979c-1.232,0-1.849,0.616-1.849,1.848v20.24
			C257.188,91.556,257.818,92.172,259.08,92.172z"/>
		<path d="M280.903,96h-10.031V64.408h4.224v27.764h5.808V96z"/>
		<path d="M287.855,68.236V96h-4.224V68.236h-4.048v-3.828h12.319v3.828H287.855z"/>
		<path d="M302.419,72.9v-2.772c0-1.261-0.616-1.892-1.849-1.892h-0.659c-1.203,0-1.805,0.631-1.805,1.892v5.236
			c0,0.587,0.117,0.983,0.353,1.188c0.234,0.206,0.616,0.47,1.144,0.792l4.004,2.156c0.88,0.499,1.503,0.888,1.87,1.166
			c0.366,0.279,0.652,0.616,0.858,1.012c0.205,0.396,0.308,1.151,0.308,2.266v6.732c0,3.55-1.701,5.324-5.104,5.324h-2.597
			c-3.373,0-5.06-1.936-5.06-5.808v-1.584h4.224v1.716c0,1.232,0.631,1.848,1.893,1.848h0.748c1.114,0,1.672-0.616,1.672-1.848
			v-5.368c0-0.586-0.118-0.982-0.353-1.188c-0.234-0.205-0.615-0.469-1.144-0.792l-4.004-2.244c-0.88-0.469-1.519-0.865-1.914-1.188
			c-0.396-0.322-0.682-0.74-0.858-1.254c-0.176-0.513-0.264-1.181-0.264-2.002V69.82c0-3.608,1.687-5.412,5.06-5.412h2.641
			c3.373,0,5.06,1.804,5.06,5.412v3.08H302.419z"/>
		<path d="M326.969,77.828v3.828h-5.544V96h-4.224V64.408h10.472v3.828h-6.248v9.592H326.969z"/>
		<path d="M330.533,96V64.408h4.224V96H330.533z"/>
		<path d="M338.717,64.408h8.271c3.227,0,4.84,1.804,4.84,5.412v7.788c0,2.758-0.836,4.503-2.508,5.236L352.269,96h-4.004
			l-2.772-12.76h-2.552V96h-4.224V64.408z M342.94,79.632h2.771c1.262,0,1.893-0.762,1.893-2.288v-6.82
			c0-1.525-0.631-2.288-1.893-2.288h-2.771V79.632z"/>
		<path d="M355.349,96V64.408h10.472v3.828h-6.248v9.592h5.544v3.828h-5.544v10.516h6.248V96H355.349z"/>
		<path d="M368.856,96V64.408h7.348c3.96,0,5.939,2.024,5.939,6.072v20.944c0,3.051-1.687,4.576-5.06,4.576H368.856z M373.08,92.172
			h3.168c1.114,0,1.672-0.469,1.672-1.408v-20.24c0-1.525-0.631-2.288-1.892-2.288h-2.948V92.172z"/>
		<path d="M188.924,212.236V240H184.7v-27.764h-4.048v-3.828h12.32v3.828H188.924z"/>
		<path d="M199.396,240h-4.224v-26.18c0-3.608,1.687-5.412,5.06-5.412h3.168c3.373,0,5.06,1.804,5.06,5.412V240h-4.224v-11.572
			h-4.84V240z M204.236,224.6v-10.516c0-1.232-0.616-1.848-1.848-1.848h-1.144c-1.232,0-1.848,0.616-1.848,1.848V224.6H204.236z"/>
		<path d="M212.2,208.408h8.272c3.227,0,4.84,1.804,4.84,5.412v7.788c0,2.758-0.836,4.503-2.508,5.236L225.752,240h-4.004
			l-2.772-12.76h-2.552V240H212.2V208.408z M216.424,223.632h2.772c1.261,0,1.892-0.762,1.892-2.288v-6.82
			c0-1.525-0.631-2.288-1.892-2.288h-2.772V223.632z"/>
		<path d="M235.344,228.428V224.6h6.424V240h-8.272c-3.256,0-4.884-1.774-4.884-5.324V213.82c0-3.608,1.628-5.412,4.884-5.412h2.904
			c3.579,0,5.368,1.833,5.368,5.5v3.432h-4.224v-2.816c0-1.525-0.602-2.288-1.804-2.288h-1.056c-1.232,0-1.848,0.763-1.848,2.288
			v19.36c0,1.526,0.616,2.288,1.848,2.288h2.86v-7.744H235.344z"/>
		<path d="M245.199,240v-31.592h10.472v3.828h-6.248v9.592h5.544v3.828h-5.544v10.516h6.248V240H245.199z"/>
		<path d="M265.439,212.236V240h-4.225v-27.764h-4.048v-3.828h12.319v3.828H265.439z"/>
		<path d="M280.003,216.9v-2.772c0-1.261-0.616-1.892-1.849-1.892h-0.659c-1.203,0-1.805,0.631-1.805,1.892v5.236
			c0,0.587,0.117,0.983,0.353,1.188c0.234,0.206,0.616,0.47,1.144,0.792l4.004,2.156c0.88,0.499,1.503,0.888,1.87,1.166
			c0.366,0.279,0.652,0.616,0.858,1.012c0.205,0.396,0.308,1.151,0.308,2.266v6.732c0,3.55-1.701,5.324-5.104,5.324h-2.597
			c-3.373,0-5.06-1.936-5.06-5.808v-1.584h4.224v1.716c0,1.232,0.631,1.848,1.893,1.848h0.748c1.114,0,1.672-0.616,1.672-1.848
			v-5.368c0-0.586-0.118-0.982-0.353-1.188c-0.234-0.205-0.615-0.469-1.144-0.792l-4.004-2.244c-0.88-0.469-1.519-0.865-1.914-1.188
			c-0.396-0.322-0.682-0.74-0.858-1.254c-0.176-0.513-0.264-1.181-0.264-2.002v-6.468c0-3.608,1.687-5.412,5.06-5.412h2.641
			c3.373,0,5.06,1.804,5.06,5.412v3.08H280.003z"/>
		<path d="M304.201,240v-14.344h-5.192V240h-4.224v-31.592h4.224v13.42h5.192v-13.42h4.224V240H304.201z"/>
		<path d="M312.385,240v-31.592h4.224V240H312.385z"/>
		<path d="M327.3,212.236V240h-4.224v-27.764h-4.048v-3.828h12.319v3.828H327.3z"/>
		<path d="M163.294,384h-4.224v-11.616l-5.192-19.976h4.18l3.168,13.728h0.132l2.86-13.728h4.18l-5.104,19.976V384z"/>
		<path d="M175.261,384c-3.403,0-5.104-1.789-5.104-5.368V357.82c0-3.608,1.687-5.412,5.06-5.412h4.048
			c3.373,0,5.06,1.804,5.06,5.412v20.812c0,3.579-1.702,5.368-5.104,5.368H175.261z M176.273,380.172h2.156
			c1.114,0,1.672-0.616,1.672-1.848v-20.24c0-1.232-0.631-1.848-1.892-1.848h-1.98c-1.232,0-1.848,0.615-1.848,1.848v20.24
			C174.381,379.556,175.012,380.172,176.273,380.172z"/>
		<path d="M201.793,352.408v25.607c0,3.99-1.702,5.984-5.104,5.984h-3.564c-3.374,0-5.06-2.009-5.06-6.028v-25.563h4.224v25.695
			c0,1.38,0.616,2.068,1.848,2.068h1.716c1.144,0,1.716-0.688,1.716-2.068v-25.695H201.793z"/>
		<path d="M205.752,352.408h8.272c3.227,0,4.84,1.804,4.84,5.412v7.788c0,2.757-0.836,4.503-2.508,5.235L219.305,384H215.3
			l-2.772-12.76h-2.552V384h-4.224V352.408z M209.977,367.632h2.772c1.261,0,1.892-0.763,1.892-2.288v-6.819
			c0-1.525-0.631-2.288-1.892-2.288h-2.772V367.632z"/>
		<path d="M233.427,384h-4.224v-26.18c0-3.608,1.687-5.412,5.06-5.412h3.168c3.373,0,5.06,1.804,5.06,5.412V384h-4.224v-11.572
			h-4.84V384z M238.268,368.6v-10.516c0-1.232-0.616-1.848-1.848-1.848h-1.144c-1.232,0-1.848,0.615-1.848,1.848V368.6H238.268z"/>
		<path d="M258.859,376.608v2.023c0,3.579-1.688,5.368-5.061,5.368h-2.728c-3.374,0-5.06-1.789-5.06-5.368v-20.855
			c0-3.579,1.687-5.368,5.06-5.368h2.728c3.373,0,5.061,1.789,5.061,5.368v3.563h-4.225v-3.256c0-1.232-0.631-1.848-1.892-1.848
			h-0.836c-1.115,0-1.672,0.615-1.672,1.848v20.24c0,1.231,0.557,1.848,1.672,1.848h1.056c1.115,0,1.672-0.616,1.672-1.848v-1.716
			H258.859z"/>
		<path d="M274.788,376.608v2.023c0,3.579-1.688,5.368-5.061,5.368H267c-3.374,0-5.061-1.789-5.061-5.368v-20.855
			c0-3.579,1.687-5.368,5.061-5.368h2.728c3.373,0,5.061,1.789,5.061,5.368v3.563h-4.225v-3.256c0-1.232-0.631-1.848-1.892-1.848
			h-0.836c-1.115,0-1.672,0.615-1.672,1.848v20.24c0,1.231,0.557,1.848,1.672,1.848h1.056c1.114,0,1.672-0.616,1.672-1.848v-1.716
			H274.788z"/>
		<path d="M291.815,352.408v25.607c0,3.99-1.701,5.984-5.104,5.984h-3.563c-3.374,0-5.06-2.009-5.06-6.028v-25.563h4.224v25.695
			c0,1.38,0.616,2.068,1.848,2.068h1.716c1.145,0,1.717-0.688,1.717-2.068v-25.695H291.815z"/>
		<path d="M295.775,352.408h8.271c3.227,0,4.84,1.804,4.84,5.412v7.788c0,2.757-0.836,4.503-2.508,5.235L309.327,384h-4.004
			l-2.772-12.76h-2.552V384h-4.224V352.408z M299.999,367.632h2.771c1.262,0,1.893-0.763,1.893-2.288v-6.819
			c0-1.525-0.631-2.288-1.893-2.288h-2.771V367.632z"/>
		<path d="M316.411,384h-4.225v-26.18c0-3.608,1.687-5.412,5.061-5.412h3.168c3.373,0,5.06,1.804,5.06,5.412V384h-4.224v-11.572
			h-4.84V384z M321.251,368.6v-10.516c0-1.232-0.616-1.848-1.849-1.848h-1.144c-1.232,0-1.848,0.615-1.848,1.848V368.6H321.251z"/>
		<path d="M341.843,376.608v2.023c0,3.579-1.688,5.368-5.061,5.368h-2.728c-3.374,0-5.061-1.789-5.061-5.368v-20.855
			c0-3.579,1.687-5.368,5.061-5.368h2.728c3.373,0,5.061,1.789,5.061,5.368v3.563h-4.225v-3.256c0-1.232-0.631-1.848-1.892-1.848
			h-0.836c-1.115,0-1.672,0.615-1.672,1.848v20.24c0,1.231,0.557,1.848,1.672,1.848h1.056c1.114,0,1.672-0.616,1.672-1.848v-1.716
			H341.843z"/>
		<path d="M353.019,384h-4.225v-11.616l-5.191-19.976h4.18l3.168,13.728h0.132l2.86-13.728h4.18l-5.104,19.976V384z"/>
	</g>
</svg>