<?xml version="1.0" encoding="utf-8"?>
<!DOCTYPE svg PUBLIC "-//W3C//DTD SVG 1.1//EN" "http://www.w3.org/Graphics/SVG/1.1/DTD/svg11.dtd">
<svg version="1.1" xmlns="http://www.w3.org/2000/svg" xmlns:xlink="http://www.w3.org/1999/xlink" x="0px" y="0px"
	 viewBox="0 0 512 512" enable-background="new 0 0 512 512" xml:space="preserve"  width="512" height="512">
	<g display="inline" opacity="0.66">
		<polygon points="255.776,160.3 324.142,65.8 316.548,108.228 255.776,184.076 		"/>
		<polygon points="243.194,177.693 243.194,190.158 250.534,195.82 248.437,213.902 231.24,203.369 234.176,190.158 		"/>
		<polygon points="255.776,200.433 254.601,217.678 264.794,223.921 265.862,206.726 		"/>
		<polygon points="266.409,197.926 266.891,190.158 310.93,139.618 314.04,122.243 257.454,190.158 257.454,192.045 		"/>
	</g>
	<g display="inline">
		<path d="M82.018,230.964h26.718l19.667,36.512l19.666-36.512h26.718v56.727h-16.924v-40.743h-0.157l-22.801,40.743h-13.006
			l-22.801-40.743h-0.156v40.743H82.018V230.964z"/>
		<path d="M187.64,250.866c0-16.611,9.324-20.528,24.994-20.528h27.894c15.671,0,24.995,3.917,24.995,20.528v16.924
			c0,16.61-9.324,20.527-24.995,20.527h-27.894c-15.67,0-24.994-3.918-24.994-20.527V250.866z M205.505,262.384
			c0,8.226,1.723,11.361,9.95,11.361h22.252c8.227,0,9.951-3.135,9.951-11.361v-6.111c0-7.052-1.724-11.361-10.891-11.361h-20.372
			c-9.167,0-10.89,4.309-10.89,11.361V262.384z"/>
		<path d="M300.477,230.964h22.645l31.184,56.727h-19.352l-5.407-10.029h-35.257l-5.093,10.029h-19.431L300.477,230.964z
			 M300.79,265.44h22.252l-11.281-21.312L300.79,265.44z"/>
		<path d="M362.388,230.964h52.494c13.398,0,17.002,6.66,17.002,16.846v3.604c0,7.6-1.724,12.066-9.715,13.946v0.157
			c5.173,0.94,9.481,3.213,9.481,12.536v9.638h-17.395v-6.816c0-5.956-1.722-7.913-7.129-7.913h-27.345v14.73h-17.393V230.964z
			 M379.781,258.858h28.756c4.701,0,6.425-1.88,6.425-5.954v-1.881c0-5.015-2.507-5.954-7.991-5.954h-27.19V258.858z"/>
	</g>
	<g display="inline" opacity="0.33">
		<path d="M146.985,326.869h-1.665v-13.222h-4.76v-1.469h11.185v1.469h-4.759V326.869z"/>
		<path d="M156.598,318.642h7.443v1.371h-7.443v5.387h7.776v1.469h-9.442v-14.691h9.442v1.469h-7.776V318.642z"/>
		<path d="M172.016,326.986c-2.683,0-4.27-1.685-4.27-4.623v-5.68c0-4.152,2.567-4.623,6.131-4.623h1.372
			c3.075,0,4.015,1.333,4.015,4.231v0.471h-1.665v-0.412c0-2.057-0.431-2.821-2.586-2.821h-0.94c-3.448,0-4.663,0.412-4.663,3.095
			v4.035c0,3.35,0.137,4.858,2.919,4.858h1.978c2.664,0,3.487-0.372,3.487-2.468v-1.176h1.665v1.372c0,3.368-2.155,3.74-5.093,3.74
			H172.016z"/>
		<path d="M195.042,326.869h-1.665v-6.758h-8.599v6.758h-1.665v-14.691h1.665v6.465h8.599v-6.465h1.665V326.869z"/>
		<path d="M211.906,326.869h-2.723l-8.247-13.319h-0.039v13.319h-1.665v-14.691h2.743l8.226,13.419h0.04v-13.419h1.665V326.869z"/>
		<path d="M222.534,312.06c3.663,0.039,4.78,1.254,4.78,4.937v5.23c0,3.466-1.254,4.759-4.78,4.759h-1.978
			c-3.526,0-4.78-1.293-4.78-4.759v-5.23c0-3.683,1.117-4.897,4.78-4.937H222.534z M220.556,313.529
			c-2.468,0-3.114,0.607-3.114,3.468v5.23c0,2.918,0.96,3.271,3.114,3.29h1.978c2.155-0.019,3.115-0.372,3.115-3.29v-5.23
			c0-2.861-0.647-3.468-3.115-3.468H220.556z"/>
		<path d="M232.909,325.4h7.483v1.469h-9.148v-14.691h1.665V325.4z"/>
		<path d="M250.186,312.06c3.663,0.039,4.78,1.254,4.78,4.937v5.23c0,3.466-1.254,4.759-4.78,4.759h-1.978
			c-3.526,0-4.78-1.293-4.78-4.759v-5.23c0-3.683,1.117-4.897,4.78-4.937H250.186z M248.208,313.529
			c-2.468,0-3.114,0.607-3.114,3.468v5.23c0,2.918,0.96,3.271,3.114,3.29h1.978c2.155-0.019,3.115-0.372,3.115-3.29v-5.23
			c0-2.861-0.647-3.468-3.115-3.468H248.208z"/>
		<path d="M270.668,319.523v3.193c0,3.447-1.547,4.27-4.877,4.27h-1.607c-3.918,0-5.641-0.724-5.641-5.27v-4.544
			c0-3.976,1.802-5.113,4.309-5.113h3.859c2.213,0,3.918,0.902,3.918,3.271v1.136h-1.666v-0.842c0-1.685-0.666-2.097-3.056-2.097
			h-2.057c-3.173,0-3.644,0.627-3.644,3.84v4.72c0,2.802,0.941,3.428,3.683,3.428h1.567c2.918,0,3.545-0.352,3.545-2.702v-1.822
			h-4.682v-1.469H270.668z"/>
		<path d="M276.13,326.869h-1.664v-14.691h1.664V326.869z"/>
		<path d="M281.696,318.642h7.444v1.371h-7.444v5.387h7.777v1.469h-9.441v-14.691h9.441v1.469h-7.777V318.642z"/>
		<path d="M292.794,316.331c0-3.918,1.802-4.271,5.425-4.271c3.174,0,5.466,0.138,5.29,4.133h-1.666
			c-0.078-2.566-0.567-2.664-3.683-2.664c-3.251,0-3.702,0.412-3.702,2.449c0,2.802,1.333,2.566,4.075,2.645
			c3.487,0.195,5.25,0.097,5.25,4.073c0,4.154-1.959,4.29-5.661,4.29c-3.742,0-5.681-0.45-5.368-4.701h1.666
			c-0.04,3.232,0.588,3.232,3.702,3.232c3.133,0,3.996,0,3.996-2.88c0-2.801-1.254-2.33-3.937-2.545
			C295.282,319.856,292.794,320.209,292.794,316.331z"/>
		<path d="M320.238,326.986c-2.684,0-4.271-1.685-4.271-4.623v-5.68c0-4.152,2.566-4.623,6.132-4.623h1.371
			c3.075,0,4.015,1.333,4.015,4.231v0.471h-1.664v-0.412c0-2.057-0.431-2.821-2.586-2.821h-0.94c-3.447,0-4.661,0.412-4.661,3.095
			v4.035c0,3.35,0.136,4.858,2.918,4.858h1.979c2.663,0,3.487-0.372,3.487-2.468v-1.176h1.664v1.372c0,3.368-2.154,3.74-5.092,3.74
			H320.238z"/>
		<path d="M337.8,312.06c3.663,0.039,4.779,1.254,4.779,4.937v5.23c0,3.466-1.254,4.759-4.779,4.759h-1.979
			c-3.525,0-4.779-1.293-4.779-4.759v-5.23c0-3.683,1.116-4.897,4.779-4.937H337.8z M335.821,313.529
			c-2.468,0-3.114,0.607-3.114,3.468v5.23c0,2.918,0.96,3.271,3.114,3.29h1.979c2.154-0.019,3.114-0.372,3.114-3.29v-5.23
			c0-2.861-0.647-3.468-3.114-3.468H335.821z"/>
		<path d="M348.115,326.869h-1.664v-14.691h6.777c3.173,0,4.564,0.883,4.564,4.231c0,2.057-0.235,3.585-2.566,3.878v0.04
			c1.645,0.117,2.369,1.057,2.369,2.644v3.899h-1.664v-3.114c0-1.861-0.451-2.762-2.469-2.762h-5.347V326.869z M353.246,319.523
			c2.567-0.078,2.88-0.862,2.88-3.29c0-1.881-0.254-2.586-2.88-2.586h-5.132v5.877H353.246z"/>
		<path d="M361.63,312.177h7.482c2.841,0,3.507,1.921,3.507,4.447c0,1.312-0.02,4.525-3.585,4.525h-5.739v5.72h-1.666V312.177z
			 M363.296,313.646v6.034h4.309c2.213,0,3.349,0.019,3.349-2.84c0-2.821-0.509-3.193-2.566-3.193H363.296z"/>
	</g>
</svg>