<?xml version="1.0" encoding="utf-8"?>
<!DOCTYPE svg PUBLIC "-//W3C//DTD SVG 1.1//EN" "http://www.w3.org/Graphics/SVG/1.1/DTD/svg11.dtd">
<svg version="1.1" xmlns="http://www.w3.org/2000/svg" xmlns:xlink="http://www.w3.org/1999/xlink" x="0px" y="0px"
	 viewBox="0 0 600 600" enable-background="new 0 0 600 600" xml:space="preserve">
	 <!--

		Brand marks are the property of their respective copyright and trademark holders.
		All other content Copyright © 2017 Moar Technologies Corp. See LICENSE for details.

	 -->




	 <!--  Space Rocks  -->

	<symbol viewBox="0 0 1200 600" id="space-rocks">
		<title>Space Rocks</title>
		<path d="M126.977,169.333l3.193-20.16c1.453-9.17-2.301-13.76-11.261-13.76h-4.8c-8.75,0-13.847,4.59-15.3,13.76l-6.031,38.08
			c-0.676,4.27-0.283,7.15,1.192,8.64c1.467,1.495,3.938,3.415,7.407,5.76l26.637,15.68c5.826,3.63,9.907,6.456,12.256,8.48
			c2.344,2.03,4.036,4.48,5.075,7.36c1.034,2.88,0.914,8.375-0.37,16.48l-7.755,48.959c-4.089,25.816-18.507,38.72-43.252,38.72
			h-18.88c-24.535,0-34.57-14.08-30.11-42.24l1.825-11.52h30.72l-1.977,12.479c-1.419,8.96,2.456,13.44,11.631,13.44h5.44
			c8.104,0,12.87-4.479,14.289-13.44l6.183-39.04c0.676-4.265,0.276-7.145-1.192-8.64c-1.474-1.489-3.939-3.41-7.407-5.759
			l-26.535-16.32c-5.86-3.411-10.044-6.291-12.551-8.64c-2.509-2.345-4.107-5.385-4.796-9.12c-0.689-3.73-0.561-8.585,0.386-14.56
			l7.451-47.041c4.156-26.24,18.499-39.36,43.034-39.36h19.2c24.53,0,34.722,13.12,30.566,39.36l-3.548,22.4H126.977z"/>
		<path d="M190.578,107.573h56c24.744,0,35.041,13.12,30.885,39.36l-10.795,68.16c-4.123,26.03-18.453,39.04-42.983,39.04h-25.6
			l-13.177,83.2h-30.72L190.578,107.573z M202.494,226.293h19.52c8.105,0,12.87-4.48,14.289-13.439l10.137-64.001
			c1.419-8.959-2.461-13.44-11.631-13.44h-17.92L202.494,226.293z"/>
		<path d="M299.815,337.333h-30.72l30.156-190.4c4.156-26.24,18.5-39.36,43.034-39.36h23.04c24.53,0,34.723,13.12,30.567,39.36
			l-30.156,190.4h-30.721l13.33-84.16h-35.2L299.815,337.333z M352.754,225.333l12.113-76.48c1.419-8.959-2.351-13.44-11.311-13.44
			h-8.32c-8.96,0-14.15,4.48-15.569,13.44l-12.113,76.48H352.754z"/>
		<path d="M490.727,283.574l-2.332,14.72c-4.123,26.03-18.454,39.04-42.983,39.04h-19.841c-24.534,0-34.739-13.01-30.617-39.04
			l24.024-151.68c4.122-26.025,18.449-39.041,42.983-39.041h19.841c24.529,0,34.738,13.015,30.617,39.041l-4.105,25.919h-30.721
			l3.75-23.68c1.419-8.959-2.461-13.44-11.631-13.44h-6.08c-8.109,0-12.87,4.48-14.289,13.44l-23.314,147.2
			c-1.419,8.96,1.922,13.44,10.031,13.44h7.681c8.104,0,12.869-4.479,14.288-13.44l1.977-12.479H490.727z"/>
		<path d="M504.58,337.333l36.39-229.76h76.159l-4.409,27.84h-45.439l-11.049,69.76h40.32l-4.41,27.84h-40.32l-12.113,76.479h45.439
			l-4.409,27.84H504.58z"/>
		<path d="M629.441,205.068h60.159c23.466,0,33.122,13.12,28.966,39.36l-8.971,56.64c-3.177,20.056-11.268,32.75-24.271,38.08
			l6.286,95.681h-29.12l-5.462-92.801h-18.56l-14.698,92.801h-30.719L629.441,205.068z M642.625,315.788h20.16
			c9.17,0,14.638-5.545,16.395-16.64l7.856-49.601c1.756-11.089-1.954-16.639-11.124-16.639h-20.16L642.625,315.788z"/>
		<path d="M747.928,434.828c-24.75,0-35.06-13.01-30.937-39.04l23.973-151.36c4.156-26.24,18.5-39.36,43.034-39.36h29.44
			c24.53,0,34.722,13.12,30.565,39.36l-23.973,151.36c-4.123,26.03-18.559,39.04-43.304,39.04H747.928z M759.697,406.987h15.68
			c8.105,0,12.87-4.479,14.289-13.439l23.314-147.2c1.419-8.96-2.461-13.439-11.631-13.439h-14.4
			c-8.961,0-14.15,4.479-15.569,13.439l-23.314,147.2C746.646,402.508,750.522,406.987,759.697,406.987z"/>
		<path d="M938.904,381.068l-2.331,14.72c-4.123,26.03-18.454,39.04-42.983,39.04h-19.841c-24.534,0-34.739-13.01-30.616-39.04
			l24.023-151.68c4.122-26.024,18.449-39.04,42.983-39.04h19.841c24.529,0,34.738,13.016,30.616,39.04l-4.105,25.92h-30.721
			l3.751-23.68c1.419-8.96-2.461-13.439-11.631-13.439h-6.08c-8.109,0-12.87,4.479-14.289,13.439l-23.314,147.2
			c-1.419,8.96,1.922,13.439,10.031,13.439h7.681c8.104,0,12.869-4.479,14.288-13.439l1.977-12.479H938.904z"/>
		<path d="M983.478,434.828h-30.72l36.391-229.76h30.72L983.478,434.828z M1054.197,434.828h-30.72l-20.61-112.319l0.304-1.921
			l50.297-115.52h28.16l-50.414,114.24L1054.197,434.828z"/>
		<path d="M1150.884,266.829l3.193-20.161c1.452-9.17-2.302-13.759-11.261-13.759h-4.801c-8.75,0-13.847,4.589-15.299,13.759
			l-6.031,38.08c-0.676,4.27-0.283,7.15,1.192,8.641c1.467,1.495,3.938,3.415,7.406,5.76l26.637,15.68
			c5.826,3.63,9.907,6.455,12.257,8.479c2.344,2.03,4.035,4.48,5.074,7.36c1.034,2.881,0.914,8.376-0.369,16.48l-7.755,48.959
			c-4.089,25.816-18.508,38.721-43.253,38.721h-18.88c-24.535,0-34.569-14.08-30.109-42.24l1.824-11.52h30.72l-1.977,12.479
			c-1.419,8.96,2.456,13.439,11.631,13.439h5.44c8.104,0,12.87-4.479,14.289-13.439l6.184-39.04
			c0.676-4.265,0.276-7.146-1.192-8.641c-1.474-1.489-3.939-3.409-7.407-5.759l-26.535-16.32c-5.86-3.41-10.044-6.29-12.552-8.64
			c-2.508-2.346-4.106-5.386-4.795-9.12c-0.689-3.729-0.561-8.585,0.386-14.561l7.45-47.04c4.156-26.24,18.499-39.36,43.034-39.36
			h19.2c24.53,0,34.722,13.12,30.565,39.36l-3.548,22.401H1150.884z"/>	
	</symbol>
	<symbol viewBox="0 0 1200 600" id="space-rocks-underline">
		<polygon points="1140.364,525 8.364,525 13.115,495 1145.115,495"/>
	</symbol>




	 <!--  Error  -->

	<symbol viewBox="0 0 600 600" id="error">
		<title>Error</title>
		<circle cx="300" cy="435" r="33"/>
		<path d="M330,371.704c0,4.582-3.582,8.296-8,8.296h-44c-4.418,0-8-3.714-8-8.296V248.296c0-4.582,3.582-8.296,8-8.296h44
			c4.418,0,8,3.714,8,8.296V371.704z"/>
		<polygon fill="none" stroke="#000000" stroke-width="20" stroke-linecap="round" stroke-linejoin="round" stroke-miterlimit="10" points="
			300,74.833 430,300 560,525.167 300,525.167 40,525.167 170,300"/>
	</symbol>




	<!--  VR Toggle Moar Mark  -->

	<symbol viewBox="0 0 600 600" id="moar-mark">
		<title>Moar mark</title>
		<polygon points="299.42,196.373 598.012,-216.366 564.846,-31.056 299.42,300.216"/>
		<polygon points="244.464,272.337 244.464,326.778 276.522,351.508 267.362,430.484 192.257,384.482 
			205.079,326.778"/>
		<polygon points="299.42,371.659 294.287,446.976 338.805,474.242 343.469,399.142"/>
		<polygon points="345.857,360.707 347.964,326.778 540.309,106.04 553.891,30.154 306.748,326.778 306.748,335.022 "/>
	</symbol>




	<!--  Instructions  -->

	<symbol viewBox="0 0 600 300" id="trigger-base">
		<polyline fill="#777777" points="299.5,113 281.5,114.5 211.5,117.5 184,138.75 165.75,149.25 196.5,155.75 219.5,160.5 
			247.375,165.625 	"/>
		<polyline fill="#777777" points="299.5,113 299.125,139 298.875,143.5 279,149.5 261.5,153.75 253,158.75 	"/>
		<path fill="#777777" stroke="#333333" stroke-width="2" stroke-miterlimit="10" d="M343,50.5l3-2.75c0,0,4.75-5.5,6-7.5
			s3-5.75,3-5.75l0.5-1c0,0,18-1,19.5,0s3.5,15,3.5,15"/>
		<path fill="#777777" stroke="#333333" stroke-width="2" stroke-miterlimit="10" d="M156.5,152c1.5-4,17-22.5,27.5-33
			s49.75-43.75,61.25-51.25L263,68.5l18.75-1.75c0,0,28-2.25,32.5-3.5s7.75-2,12-4s12.5-6,12.5-6L342,51c0,0,0,0,10.5-1
			s49.5-0.5,53,1.5s11,4,11.5,9.5s-8,19.5-10.5,23.5S392,101,388,102.5"/>
		<path fill="none" stroke="#333333" stroke-width="2" stroke-linecap="round" stroke-miterlimit="10" d="M246.5,165.5
			c-5-0.5-13-2-22.5-4s-25.5-5.5-34.5-7s-19.5-6-27.5-4.5s-8.5,4-12,8s-7,12.5-6,17s4,10.5,6,12.5s14,7.5,18.5,8s21.5,6,28.5,9
			s17,6,22,7.5s35.5,11.5,41,11.5s20,4,24,3.5s12-4,14.5-6.5"/>
		<path fill="none" stroke="#333333" stroke-width="2" stroke-linecap="round" stroke-miterlimit="10" d="M144.5,179
			c-5.5,4-9,11-9,14s-0.5,9,2.5,13.5s18.5,19,25.5,23s13,11,22,14s18.5,10,24.5,12.5s22,6,29.5,3s14.5-8.5,17-13.5s14.5-18,14.5-20.5
			"/>
		<path fill="none" stroke="#333333" stroke-width="2" stroke-linecap="round" stroke-miterlimit="10" d="M217.5,258.5
			c-4.5,3.5-7,4-11,4S191,256,180,253s-33-10.5-41-16.5s-18.5,0.5-29.5-17s-16.5-28-17-37.5"/>
		<path fill="none" stroke="#333333" stroke-width="2" stroke-linecap="round" stroke-miterlimit="10" d="M113.5,226.5
			c-9.5,2.5-12.5-1.5-22-2s-47,5-59.5,5s-93.5,4-106,3"/>
		<path fill="#777777" stroke="#333333" stroke-width="2" stroke-miterlimit="10" d="M250,99c11.333,13.333,28,35.333,48.667,37.333"
			/>
		<path fill="none" stroke="#333333" stroke-width="2" stroke-linecap="round" stroke-miterlimit="10" d="M168.667,135.667
			C151.667,151.667,139,154,129,154s-23-10-23-10"/>
		<path fill="#777777" stroke="#333333" stroke-width="2" stroke-miterlimit="10" d="M302,68.333c-2,14-3.641,99.957-3.333,119.333
			c0.667,42,0.496,84.606,6,91.333c12,4,24,2.667,40.667,1.333c16.667-1.333,25.333-2.667,32-8.667C384,261,389,197.667,389,167
			s0.517-76.157-3.333-106"/>
		<path fill="#777777" stroke="#333333" stroke-width="2" stroke-miterlimit="10" d="M272.667,68.333c9.333,2,53.32-1.132,72-3
			C368,63,407.333,58.333,405.5,51.5"/>
		<path fill="#777777" stroke="#333333" stroke-width="2" stroke-miterlimit="10" d="M277.833,137.5c-3.422-2.28-15-12-21.833-16.833
			c-4.463-3.157-15.667-8.667-23-7.333c-4.057,0.738-8,2-11.333,7.667c-3.333,5.667-3.667,16.333-1.667,22.333"/>
		<path fill="none" stroke="#333333" stroke-width="2" stroke-miterlimit="10" d="M247.333,164.333c-4.333-1-16.333-8-21.667-12.333
			c-5.333-4.333-6.333-10.333-6-15c0.333-4.667,1.667-8,5.667-12.333c4-4.333,10.65-4.667,14-4.667c6.667,0,16.667,6,21,8
			c4.333,2,11.667,6,15.667,8.333c4,2.333,10.333,6.667,13.667,10.333"/>
		<path fill="none" stroke="#333333" stroke-width="2" stroke-linecap="round" stroke-miterlimit="10" d="M208.5,73c4,1,18-6,22.5-6
			s28.5,1,32,1.5s41-4,45-4s11.5-1,27.5-9.5S354,37,356,31s0-11.5-6.5-14s-34.5,2-38,1.5s-13-2.5-16-2.5s-21-6.5-29.5-8
			s-31-2-39.5-2.5S192.333,0,176.333,3.667C169.237,5.293,152,22,150.5,25.5s-47.301,48.376-54,54c-9.196,7.72-18.617,6.672-33,7
			c-15.071,0.344-140.5,1-157.5,1"/>
		<path fill="none" stroke="#333333" stroke-width="2" stroke-linecap="round" stroke-miterlimit="10" d="M299,143
			c-5.31,4.13-10.5,4.5-18,6s-25,5.25-30.5,12.25c-4.156,5.289-7.5,11.75-8,15.25s-2,16.5,2.5,23s12.527,10.857,15.5,11.5
			c6.167,1.333,16.183,0.077,22-2.25c5-2,15-8.5,16.25-13"/>
	</symbol>
	<symbol viewBox="0 0 600 300" id="trigger-released">
		<path display="inline" fill="none" stroke="#333333" stroke-width="2" stroke-linecap="round" stroke-miterlimit="10" d="M406,94.5
			c0,0,29,9.5,36.5,11.5s35,15,39,17.5s18,11,17.5,20.5s-5,17-10.5,20.5S477,168,471,166s-32.5-12.5-44.5-16.5
			s-30-11.167-32.5-10.167"/>
		<path display="inline" fill="#FFFFFF" stroke="#333333" stroke-width="2" stroke-linecap="round" stroke-miterlimit="10" d="
			M389,149.667c0,0,5.5-1.667,5.5-7.167c0.5-33,14-45.5,12-58c0,0-9.167,12.167-17.5,17.5C389,111.333,389,149.667,389,149.667z"/>
	</symbol>
	<symbol viewBox="0 0 600 300" id="trigger-pressed">
		<path display="inline" fill="none" stroke="#333333" stroke-width="2" stroke-linecap="round" stroke-miterlimit="10" d="
			M396.833,100.833C400.5,98.5,410,102,412,104.667c2,2.667,5.667,5.667,6.667,13c1,7.333,2.406,15.237-5.667,26
			c-2.5,3.333-7,8.333-14.333,8.667c-7.333,0.333-10.5-5.667-9.167-10.5c2.333-3.667,3.25-15.833,8.25-23.833"/>
		<path display="inline" fill="#FFFFFF" stroke="#333333" stroke-width="2" stroke-linecap="round" stroke-miterlimit="10" d="
			M395,97c0,0,1.028,2.663,1.5,6.25c1.25,9.5-4.75,21.25-7.25,34.75c-0.592,3.196-0.5-34.75-0.5-34.75L395,97"/>
	</symbol>


	<symbol viewBox="0 0 600 300" id="grip-base">
		<polyline fill="none" points="299.5,113 281.5,114.5 211.5,117.5 184,138.75 165.75,149.25 196.5,155.75 219.5,160.5 
			247.375,165.625 	"/>
		<path fill="#777777" stroke="#333333" stroke-width="2" stroke-miterlimit="10" d="M343,50.5l3-2.75c0,0,4.75-5.5,6-7.5
			s3-5.75,3-5.75l0.5-1c0,0,18-1,19.5,0s3.5,15,3.5,15"/>
		<path fill="#777777" stroke="#333333" stroke-width="2" stroke-miterlimit="10" d="M156.5,152c1.5-4,17-22.5,27.5-33
			s49.75-43.75,61.25-51.25L263,68.5l18.75-1.75c0,0,28-2.25,32.5-3.5s7.75-2,12-4s12.5-6,12.5-6L342,51c0,0,0,0,10.5-1
			s49.5-0.5,53,1.5s11,4,11.5,9.5s-8,19.5-10.5,23.5S392,101,388,102.5"/>
		<path fill="none" stroke="#333333" stroke-width="2" stroke-linecap="round" stroke-miterlimit="10" d="M204.333,157.333
			c0,0-5.833-1.333-14.833-2.833s-19.5-6-27.5-4.5s-8.5,4-12,8s-7,12.5-6,17s4,10.5,6,12.5s14,7.5,18.5,8s21.5,6,28.5,9s17,6,22,7.5
			s35.5,11.5,41,11.5s20,4,24,3.5s12-4,14.5-6.5"/>
		<path fill="none" stroke="#333333" stroke-width="2" stroke-linecap="round" stroke-miterlimit="10" d="M144.5,179
			c-5.5,4-9,11-9,14s-0.5,9,2.5,13.5s18.5,19,25.5,23s13,11,22,14s18.5,10,24.5,12.5s22,6,29.5,3s14.5-8.5,17-13.5s14.5-18,14.5-20.5
			"/>
		<path fill="none" stroke="#333333" stroke-width="2" stroke-linecap="round" stroke-miterlimit="10" d="M217.5,258.5
			c-4.5,3.5-7,4-11,4S191,256,180,253s-33-10.5-41-16.5s-18.5,0.5-29.5-17s-16.5-28-17-37.5"/>
		<path fill="none" stroke="#333333" stroke-width="2" stroke-linecap="round" stroke-miterlimit="10" d="M113.5,226.5
			c-9.5,2.5-12.5-1.5-22-2s-47,5-59.5,5s-93.5,4-106,3"/>
		<path fill="none" stroke="#333333" stroke-width="2" stroke-linecap="round" stroke-miterlimit="10" d="M168.667,135.667
			C151.667,151.667,139,154,129,154s-23-10-23-10"/>
		<path fill="none" stroke="#333333" stroke-width="2" stroke-linecap="round" stroke-miterlimit="10" d="M406,94.5
			c0,0,29,9.5,36.5,11.5s35,15,39,17.5s18,11,17.5,20.5s-5,17-10.5,20.5S477,168,471,166s-32.5-12.5-44.5-16.5
			s-30-11.167-32.5-10.167"/>
		<path fill="#777777" stroke="#333333" stroke-width="2" stroke-miterlimit="10" d="M389,149.667c0,0,5.5-1.667,5.5-7.167
			c0.5-33,14-45.5,12-58c0,0-9.167,12.167-17.5,17.5C389,111.333,389,149.667,389,149.667z"/>
		<path fill="#777777" stroke="#333333" stroke-width="2" stroke-miterlimit="10" d="M302,68.333c-2,14-3.641,99.957-3.333,119.333
			c0.667,42,0.496,84.606,6,91.333c12,4,24,2.667,40.667,1.333c16.667-1.333,25.333-2.667,32-8.667C384,261,389,197.667,389,167
			s0.517-76.157-3.333-106"/>
		<path fill="#777777" stroke="#333333" stroke-width="2" stroke-linecap="round" stroke-miterlimit="10" d="M250,99
			c11.333,13.333,28,35.333,48.667,37.333l1-22"/>
		<path fill="#777777" stroke="#333333" stroke-width="2" stroke-miterlimit="10" d="M272.667,68.333c9.333,2,53.32-1.132,72-3
			C368,63,407.333,58.333,405.5,51.5"/>
		<path fill="none" stroke="#333333" stroke-width="2" stroke-linecap="round" stroke-miterlimit="10" d="M208.5,73c4,1,18-6,22.5-6
			s28.5,1,32,1.5s41-4,45-4s11.5-1,27.5-9.5S354,37,356,31s0-11.5-6.5-14s-34.5,2-38,1.5s-13-2.5-16-2.5s-21-6.5-29.5-8
			s-31-2-39.5-2.5S192.333,0,176.333,3.667C169.237,5.293,152,22,150.5,25.5s-47.301,48.376-54,54c-9.196,7.72-18.617,6.672-33,7
			c-15.071,0.344-140.5,1-157.5,1"/>
	</symbol>
	<symbol viewBox="0 0 600 300" id="grip-released">
		<path fill="#777777" d="M169.333,150L198,123.333l58.333-9l18.5,12.667c0,0,7.5,5.333,11.833,7C291,135.667,298,137,298,137
			l0.333,5.5c0,0-0.833,2.667-2.833,3.167S275,145.5,275,145.5l-18.167,4.333L247.167,166c0,0-15.167-3.167-25-5
			c-9.833-1.833-35.833-6.833-37.333-7.333S169.333,150,169.333,150"/>
		<path fill="none" stroke="#333333" stroke-width="2" stroke-linecap="round" stroke-miterlimit="10" d="M298.5,220.5
			c-2.5,2.5-10.5,6-14.5,6.5s-18.5-3.5-24-3.5s-36-10-41-11.5s-15-4.5-22-7.5s-24-8.5-28.5-9s-16.5-6-18.5-8s-5-8-6-12.5s2.5-13,6-17
			s4-6.5,12-8s18.505,2.973,27.5,4.5c9.321,1.582,25.754,5.193,34.5,7c9.507,1.965,17.5,3.5,22.5,4"/>
		<path fill="#FFFFFF" stroke="#333333" stroke-width="2" stroke-miterlimit="10" d="M277.833,137.5c-3.422-2.28-15-12-21.833-16.833
			c-4.463-3.157-15.667-8.667-23-7.333c-4.057,0.738-8,2-11.333,7.667c-3.333,5.667-3.667,16.333-1.667,22.333"/>
		<path fill="#FFFFFF" stroke="#333333" stroke-width="2" stroke-miterlimit="10" d="M289.667,146.667
			c-3.333-3.667-9.667-8-13.667-10.333C272,134,264.667,130,260.333,128c-4.333-2-14.333-8-21-8c-3.35,0-10,0.333-14,4.667
			c-4,4.333-5.333,7.667-5.667,12.333c-0.333,4.667,0.667,10.667,6,15c5.333,4.333,17.333,11.333,21.667,12.333L253,158.5
			c0,0,4-2.167,6.833-3.667c2.833-1.5,12.5-4,12.5-4L289.667,146.667z"/>
		<path fill="none" stroke="#333333" stroke-width="2" stroke-linecap="round" stroke-miterlimit="10" d="M299,143
			c-5.31,4.13-10.5,4.5-18,6s-25,5.25-30.5,12.25c-4.156,5.289-7.5,11.75-8,15.25s-2,16.5,2.5,23s12.527,10.857,15.5,11.5
			c6.167,1.333,16.183,0.077,22-2.25c5-2,15-8.5,16.25-13"/>
	</symbol>
	<symbol viewBox="0 0 600 300" id="grip-pressed">
		<path display="inline" fill="#777777" d="M285.333,133.333l-8,1.333L270,131.333l-17.667-8.667l-24-5.667c0,0-4.333,2.667-8.333,5
			s-13.333,9.333-15,12.667c-1.667,3.333-2.333,11.333-2.333,13c0,1.667,1.167,8.333,1.167,8.333s-12-2-16.167-2.833
			c-4.167-0.833-7.667-2.167-12.833-3.333c-5.167-1.167-10.167-1.167-10.167-1.167L181.333,128l61.292-27.25l32.125,25.875
			L285.333,133.333z"/>
		<path display="inline" fill="#FFFFFF" stroke="#333333" stroke-width="2" stroke-linecap="round" stroke-miterlimit="10" d="
			M270,131.333c-1.5-2.333-7.167-5.833-14-10.667c-4.463-3.157-15.667-8.667-23-7.333c-4.057,0.738-8.667,2.833-12,8.5"/>
		<path display="inline" fill="#888888" stroke="#333333" stroke-width="2" stroke-miterlimit="10" d="M299,137l-0.667,51.667
			c0,0-23.333-0.333-33.333-3C255,183,209.965,162.33,207,160c-4.667-3.667-4-11.667-4-15.667s1.509-11.1,8.667-16.667
			c6-4.667,12-7.333,19.667-6.667c7.667,0.667,42.667,10.667,47.333,14.333c0,0-1.333-1.333,3.333-1.667
			c4.667-0.333,4.667-0.333,4.667-0.333l3.333,1L299,137z"/>
	</symbol>




	<!--  Browsers  -->

	<symbol viewBox="0 0 600 600" id="edge">
		<title>Microsoft Edge</title>
		<path d="M206.348,350.418c0,12.941,1.933,24.705,5.882,35.293c4.202,10.42,9.664,19.747,16.638,27.898
		c6.975,8.151,15.125,15.125,24.705,21.008c9.243,5.882,19.327,10.756,30.083,14.537c10.672,3.865,21.848,6.722,33.192,8.571
		c11.512,1.849,22.688,2.773,34.032,2.773c14.285,0,27.562-1.092,40.167-3.361c12.605-2.353,24.873-5.462,36.973-9.411
		c12.1-3.949,23.781-8.655,35.461-14.033c11.764-5.378,23.697-11.26,35.965-17.814v113.945
		c-13.697,6.722-27.142,12.352-40.587,17.226c-13.445,4.706-26.89,8.823-40.587,12.1c-13.697,3.361-27.562,5.882-41.763,7.395
		c-14.201,1.513-28.738,2.353-43.864,2.353c-20.167,0-39.662-2.353-58.401-6.975s-36.301-11.26-52.771-19.999
		c-16.47-8.739-31.511-19.327-45.208-31.763c-13.781-12.437-25.461-26.47-35.293-42.015c-9.832-15.546-17.394-32.604-22.856-50.922
		c-5.294-18.319-7.983-37.814-7.983-58.485c0-22.1,3.025-43.108,9.075-63.191c6.134-20.167,14.789-38.486,26.217-55.292
		c11.344-16.806,25.209-31.764,41.595-44.788s34.789-23.697,55.292-31.932c-11.176,11.176-19.915,24.369-26.049,39.746
		c-6.302,15.294-10.252,30.671-12.016,46.049h191.421c0-19.327-1.933-36.133-5.882-50.586c-3.949-14.453-10.252-26.47-19.075-35.965
		c-8.739-9.579-19.999-16.806-33.864-21.512c-13.865-4.79-30.587-7.227-50.166-7.227c-23.108,0-46.217,3.361-69.325,10.336
		c-23.108,6.722-45.04,16.386-65.88,28.57c-20.84,12.352-39.999,26.89-57.477,43.528c-17.478,16.806-32.184,34.873-44.116,54.452
		c2.521-22.688,7.563-44.536,14.537-65.292s16.218-40.083,27.31-57.981c11.092-17.646,24.117-33.78,38.99-48.233
		s31.343-26.89,49.578-36.973s37.562-18.235,58.569-23.697c21.008-4.79,43.36-7.647,66.888-7.647c13.781,0,27.478,1.26,41.175,3.697
		c13.697,2.521,27.058,5.882,40.083,10.252c25.881,8.907,48.99,21.344,69.325,37.141c20.335,15.966,37.394,34.116,51.259,54.872
		c13.865,20.756,24.369,43.696,31.595,68.653c7.227,24.957,10.924,50.922,10.924,77.896v66.804L206.348,350.418L206.348,350.418z"/>
	</symbol>

	<symbol viewBox="0 0 600 600" id="chrome">
		<title>Google Chrome</title>
		<path d="M75.169,150.445C123.564,77.836,206.196,30,300,30c98.44,0,184.576,52.682,231.753,131.39L300,160
			c-76.317,0-138.372,61.065-139.968,136.999L75.169,150.445z"/>
		<path d="M282.897,569.487C195.819,563.88,113.075,516.237,66.173,435c-49.22-85.252-46.665-186.189-2.09-266.399L178.756,370
			c38.159,66.092,122.069,89.301,188.629,52.717L282.897,569.487z"/>
		<path d="M541.934,180.068c38.684,78.216,38.795,173.695-8.107,254.932c-49.22,85.252-137.912,133.507-229.663,135.009L421.244,370
			c38.159-66.092,16.302-150.366-48.66-189.716L541.934,180.068z"/>
		<circle display="inline" cx="300" cy="300" r="120"/>
	</symbol>

	<symbol viewBox="0 0 600 600" id="firefox">
		<title>Mozilla Firefox</title>
		<path d="M580.058,224.729l-6.504,41.736c0,0-9.301-77.269-20.699-106.156
		c-17.47-44.263-25.242-43.907-25.292-43.843c11.7,29.735,9.579,45.709,9.579,45.709s-20.731-56.501-75.545-74.477
		c-64.917-21.279-97.986-13.588-97.74-13.292c0.246,0.301,67.093,11.686,78.947,27.975c0,0-28.394,0-56.652,8.142
		c-1.277,0.365,103.966,13.146,125.482,118.312c0,0-11.536-24.07-25.803-28.157c9.383,28.545,6.974,82.711-1.961,109.631
		c-1.149,3.462-2.326-14.966-19.928-22.902c5.638,40.4-0.338,104.477-28.367,122.129c-2.185,1.373,17.57-63.256,3.973-38.269
		c-78.283,120.027-170.826,55.391-212.431,26.94c21.321,4.641,61.798-0.724,79.715-14.05c0.018-0.014,0.036-0.027,0.054-0.04
		c19.464-13.307,30.987-23.028,41.335-20.727c10.354,2.313,17.246-8.078,9.205-17.297c-8.051-9.237-27.601-21.931-54.047-15.011
		c-18.651,4.885-41.763,25.521-77.045,4.625c-27.079-16.044-29.629-29.373-29.869-38.606c0.669-3.272,1.511-6.328,2.51-9.119
		c3.117-8.706,12.57-11.332,17.826-13.405c8.917,1.532,16.601,4.312,24.668,8.451c0.104-2.686,0.139-6.25-0.009-10.292
		c0.773-1.539,0.294-6.173-0.944-11.836c-0.715-5.656-1.877-11.507-3.704-16.837c0.006-0.002,0.01-0.006,0.016-0.007
		c0.03-0.01,0.059-0.022,0.085-0.039c0.043-0.025,0.08-0.061,0.114-0.103c0.008-0.011,0.018-0.019,0.025-0.031
		c0.045-0.068,0.084-0.149,0.107-0.255c0.47-2.127,4.802-5.914,10.629-10.185c7.645-5.602,17.859-12.036,25.305-16.651
		c5.05-3.129,8.829-5.423,9.67-6.051c0.34-0.256,0.747-0.557,1.19-0.9c0.079-0.061,0.16-0.124,0.242-0.188
		c0.054-0.043,0.107-0.084,0.162-0.129c3.073-2.449,7.714-7.15,8.411-17.252c0.006-0.082,0.011-0.165,0.016-0.247
		c0.041-0.656,0.068-1.33,0.074-2.032c0.002-0.176-0.002-0.359-0.003-0.538c-0.003-0.594-0.016-1.203-0.045-1.831
		c-0.005-0.12-0.002-0.229-0.009-0.35c-0.029-0.546-0.068-1.039-0.158-1.489c-0.008-0.039-0.016-0.078-0.024-0.117
		c-0.008-0.037-0.017-0.074-0.026-0.11c-0.021-0.085-0.044-0.169-0.071-0.25c-0.001-0.002-0.002-0.004-0.002-0.007
		c-1.109-3.427-7.021-3.845-44-3.697c-18.278,0.074-28.365-17.908-31.56-24.803c4.414-24.377,17.184-41.728,38.119-53.51
		c0.396-0.224,0.317-0.407-0.151-0.537c4.094-2.476-49.506-0.068-74.159,31.287c-21.902-5.443-40.996-5.082-57.445-1.216
		c-3.148-0.093-7.061-0.487-11.702-1.453c-10.93-9.906-26.577-28.198-27.416-50.035c0,0-0.051,0.039-0.138,0.11
		c-0.011-0.209-0.032-0.415-0.04-0.626c0,0-33.307,25.598-28.321,95.386c-0.013,1.116-0.035,2.187-0.066,3.222
		c-9.015,12.227-13.492,22.51-13.823,24.778c-7.987,16.261-16.09,40.732-22.684,77.878c0,0,4.612-14.629,13.87-31.195
		c-6.809,20.858-12.159,53.297-9.017,101.955c0,0,0.831-10.788,3.771-26.328c2.297,30.176,12.353,67.432,37.774,111.242
		c48.792,84.105,123.791,126.574,206.689,133.091c14.75,1.217,29.709,1.243,44.756,0.097c1.348-0.096,2.695-0.195,4.045-0.308
		c16.991-1.192,34.096-3.758,51.163-7.881C605.419,506.364,580.058,224.729,580.058,224.729z"/>
	</symbol>




	<!--  Hardware  -->
	
	<symbol viewBox="0 0 600 600" id="oculus">
		<title>Oculus Rift</title>
		<path d="M509.473,173.887c-19.019-15.264-40.776-25.807-64.457-31.501c-13.562-3.261-27.127-4.71-41.017-5.164
		c-10.285-0.336-20.566-0.242-30.851-0.242c-48.765,0-97.53,0-146.294,0c-10.289,0-20.574-0.094-30.863,0.243
		c-13.899,0.455-27.47,1.906-41.039,5.172c-23.677,5.698-45.43,16.245-64.444,31.51C52.264,204.607,29.995,250.958,30,300.015
		c0.005,49.056,22.28,95.402,60.528,126.098c19.019,15.264,40.776,25.807,64.457,31.501c13.562,3.261,27.127,4.71,41.017,5.164
		c10.285,0.336,20.566,0.242,30.851,0.242c48.765,0,97.529,0,146.294,0c10.289,0,20.574,0.094,30.863-0.242
		c13.899-0.455,27.47-1.906,41.039-5.172c23.677-5.698,45.43-16.245,64.444-31.51c38.243-30.703,60.511-77.053,60.506-126.111
		C569.995,250.929,547.72,204.583,509.473,173.887z M438.065,343.872c-7.213,4.965-15.198,7.953-23.789,9.347
		c-8.586,1.393-17.12,1.121-25.717,1.121c-59.04,0-118.079,0-177.119,0c-8.603,0-17.144,0.273-25.736-1.124
		c-8.596-1.397-16.587-4.392-23.801-9.366c-14.451-9.963-23.127-26.287-23.118-43.877c0.009-17.584,8.696-33.895,23.149-43.844
		c7.212-4.965,15.198-7.953,23.789-9.347c8.586-1.393,17.12-1.121,25.717-1.121c59.04,0,118.079,0,177.119,0
		c8.603,0,17.144-0.273,25.736,1.124c8.596,1.397,16.587,4.392,23.801,9.366c14.45,9.963,23.127,26.288,23.117,43.877
		C461.205,317.611,452.518,333.922,438.065,343.872z"/>
	</symbol>

	<symbol viewBox="0 0 600 600" id="vive">
		<title>HTC Vive</title>
		<path d="M565.281,425.478L365.216,79.148c-6.285-10.87-17.889-17.584-30.455-17.584h-69.574c-12.557,0-24.174,6.714-30.468,17.584
			L34.714,425.495c-6.285,10.879-6.285,24.281,0,35.169l34.735,60.189c6.281,10.887,17.902,17.584,30.468,17.584h400.118
			c12.561,0,24.179-6.689,30.464-17.584l34.774-60.189C571.574,449.776,571.574,436.374,565.281,425.478 M395.387,458.929
			c-30.112,9.505-62.163,14.631-95.43,14.631c-33.211,0-65.263-5.117-95.353-14.613c-35.25-11.093-56.999-46.829-49.413-82.976
			c13.798-65.787,47.979-124.07,95.671-167.927c27.819-25.569,70.385-25.587,98.199-0.017
			c47.692,43.858,81.907,102.123,95.714,167.91C452.347,412.083,430.625,447.802,395.387,458.929"/>
	</symbol>

	<symbol viewBox="0 0 600 600" id="windows-mixed-reality">
		<title>Windows Mixed Reality</title>
		<path d="M273.719,368.875c17.219-5.438,30.812-19.031,35.344-36.25c5.438-21.75,9.062-45.312,9.062-68.875
			c0-30.812-6.344-60.719-17.219-87.906c-29-1.812-59.812-2.719-91.531-2.719C98.812,173.125,10,197.594,10,227.5
			c0,68.875,26.281,131.406,67.969,176.719c2.719,2.719,5.438,4.531,9.062,4.531c5.438,0,9.062-3.625,9.062-9.062v-9.062
			c0-5.438,3.625-9.062,9.062-9.062c9.062,0,17.219,3.625,22.656,9.062s13.594,9.062,22.656,9.062
			c19.938,0,39.875-2.719,58.906-9.062L273.719,368.875z"/>
		<path d="M320.844,176.75c9.969,28.094,15.406,57.094,15.406,87c116.906,0,235.625,21.75,235.625,63.438
			c0,16.312-17.219,29-45.312,38.969C565.531,359.812,590,348.937,590,336.25v-72.5C590,222.969,476.719,188.531,320.844,176.75z"/>
		<path d="M503.906,300c-54.375,11.781-109.656,18.125-167.656,18.125c-1.812,0-3.625,0-5.438,0
			c-0.906,6.344-2.719,12.688-4.531,19.031c-2.719,11.781-9.062,21.75-17.219,30.812c22.656,1.812,47.125,2.719,71.594,3.625
			c114.188-5.438,173.094-29.906,173.094-44.406C553.75,319.938,536.531,309.062,503.906,300z"/>
	</symbol>




	<!--  Compatability  -->

	<symbol viewBox="0 0 600 600" id="checkmark">
		<title>Checkmark</title>
		<path d="M222.556,478.722C242.778,462,284,434,284,434c35.778-70,135.333-238,266-337.556l-12.444-15.167
		c-177.333,108.5-287,290.5-287,290.5s-27.222-83.224-63.349-83.224c-28.428,0-57.206,35.002-57.206,35.002
		C183.667,336.778,221.475,468.032,222.556,478.722z"/>
	</symbol>




	<!--  Colophon  -->

	<symbol viewBox="0 0 600 400" id="moar">
		<title>Moar Technologies Corp</title>
		<polygon points="300.506,163.572 405.213,18.837 393.583,83.82 300.506,199.986 "/>
		<polygon points="281.235,190.21 281.235,209.301 292.477,217.973 289.265,245.667 262.928,229.536 267.424,209.301 "/>
		<polygon points="300.506,225.039 298.706,251.451 314.317,261.012 315.953,234.677 "/>
		<polygon points="316.79,221.199 317.529,209.301 384.979,131.895 389.741,105.284 303.076,209.301 303.076,212.192 "/>
		<path d="M33.074,266.572h40.92l30.121,55.921l30.12-55.921h40.921v86.882h-25.92v-62.401h-0.24l-34.921,62.401h-19.92
			l-34.921-62.401h-0.239v62.401H33.074V266.572z"/>
		<path d="M194.843,297.053c0-25.441,14.28-31.441,38.28-31.441h42.721c24.001,0,38.283,5.999,38.283,31.441v25.92
			c0,25.439-14.281,31.439-38.283,31.439h-42.721c-23.999,0-38.28-6-38.28-31.439V297.053z M222.204,314.693
			c0,12.599,2.639,17.4,15.239,17.4h34.08c12.6,0,15.241-4.801,15.241-17.4v-9.36c0-10.8-2.641-17.4-16.681-17.4h-31.201
			c-14.04,0-16.679,6.6-16.679,17.4V314.693z"/>
		<path d="M367.661,266.572h34.682l47.761,86.882h-29.639l-8.282-15.36h-53.999l-7.801,15.36h-29.76L367.661,266.572z
			 M368.142,319.374h34.08l-17.278-32.641L368.142,319.374z"/>
		<path d="M462.483,266.572h80.399c20.521,0,26.041,10.201,26.041,25.801v5.52c0,11.64-2.641,18.481-14.88,21.36v0.24
			c7.922,1.439,14.52,4.92,14.52,19.2v14.761h-26.642v-10.44c0-9.122-2.637-12.12-10.919-12.12h-41.881v22.56h-26.638V266.572z
			 M489.122,309.293h44.042c7.2,0,9.84-2.88,9.84-9.12v-2.881c0-7.68-3.84-9.12-12.239-9.12h-41.643V309.293z"/>
	</symbol>




</svg>